<svg xmlns:xlink="http://www.w3.org/1999/xlink"  xmlns="http://www.w3.org/2000/svg" width="143" height="40" viewBox="0 0 143 40" fill="none">
<path d="M77.28 8.96L72.42 18.36V23H69V18.36L64.14 8.96H68.02L70.74 14.84L73.44 8.96H77.28ZM89.178 17.24C89.178 17.56 89.158 17.8933 89.118 18.24H81.378C81.4313 18.9333 81.6513 19.4667 82.038 19.84C82.438 20.2 82.9246 20.38 83.498 20.38C84.3513 20.38 84.9446 20.02 85.278 19.3H88.918C88.7313 20.0333 88.3913 20.6933 87.898 21.28C87.418 21.8667 86.8113 22.3267 86.078 22.66C85.3446 22.9933 84.5246 23.16 83.618 23.16C82.5246 23.16 81.5513 22.9267 80.698 22.46C79.8446 21.9933 79.178 21.3267 78.698 20.46C78.218 19.5933 77.978 18.58 77.978 17.42C77.978 16.26 78.2113 15.2467 78.678 14.38C79.158 13.5133 79.8246 12.8467 80.678 12.38C81.5313 11.9133 82.5113 11.68 83.618 11.68C84.698 11.68 85.658 11.9067 86.498 12.36C87.338 12.8133 87.9913 13.46 88.458 14.3C88.938 15.14 89.178 16.12 89.178 17.24ZM85.678 16.34C85.678 15.7533 85.478 15.2867 85.078 14.94C84.678 14.5933 84.178 14.42 83.578 14.42C83.0046 14.42 82.518 14.5867 82.118 14.92C81.7313 15.2533 81.4913 15.7267 81.398 16.34H85.678ZM94.4022 8.2V23H90.9822V8.2H94.4022ZM100.301 8.2V23H96.8806V8.2H100.301ZM102.099 17.4C102.099 16.2533 102.312 15.2467 102.739 14.38C103.179 13.5133 103.772 12.8467 104.519 12.38C105.266 11.9133 106.099 11.68 107.019 11.68C107.806 11.68 108.492 11.84 109.079 12.16C109.679 12.48 110.139 12.9 110.459 13.42V11.84H113.879V23H110.459V21.42C110.126 21.94 109.659 22.36 109.059 22.68C108.472 23 107.786 23.16 106.999 23.16C106.092 23.16 105.266 22.9267 104.519 22.46C103.772 21.98 103.179 21.3067 102.739 20.44C102.312 19.56 102.099 18.5467 102.099 17.4ZM110.459 17.42C110.459 16.5667 110.219 15.8933 109.739 15.4C109.272 14.9067 108.699 14.66 108.019 14.66C107.339 14.66 106.759 14.9067 106.279 15.4C105.812 15.88 105.579 16.5467 105.579 17.4C105.579 18.2533 105.812 18.9333 106.279 19.44C106.759 19.9333 107.339 20.18 108.019 20.18C108.699 20.18 109.272 19.9333 109.739 19.44C110.219 18.9467 110.459 18.2733 110.459 17.42ZM123.153 11.72C124.46 11.72 125.5 12.1467 126.273 13C127.06 13.84 127.453 15 127.453 16.48V23H124.053V16.94C124.053 16.1933 123.86 15.6133 123.473 15.2C123.087 14.7867 122.567 14.58 121.913 14.58C121.26 14.58 120.74 14.7867 120.353 15.2C119.967 15.6133 119.773 16.1933 119.773 16.94V23H116.353V11.84H119.773V13.32C120.12 12.8267 120.587 12.44 121.173 12.16C121.76 11.8667 122.42 11.72 123.153 11.72ZM129.15 17.4C129.15 16.2533 129.363 15.2467 129.79 14.38C130.23 13.5133 130.823 12.8467 131.57 12.38C132.317 11.9133 133.15 11.68 134.07 11.68C134.857 11.68 135.543 11.84 136.13 12.16C136.73 12.48 137.19 12.9 137.51 13.42V11.84H140.93V23H137.51V21.42C137.177 21.94 136.71 22.36 136.11 22.68C135.523 23 134.837 23.16 134.05 23.16C133.143 23.16 132.317 22.9267 131.57 22.46C130.823 21.98 130.23 21.3067 129.79 20.44C129.363 19.56 129.15 18.5467 129.15 17.4ZM137.51 17.42C137.51 16.5667 137.27 15.8933 136.79 15.4C136.323 14.9067 135.75 14.66 135.07 14.66C134.39 14.66 133.81 14.9067 133.33 15.4C132.863 15.88 132.63 16.5467 132.63 17.4C132.63 18.2533 132.863 18.9333 133.33 19.44C133.81 19.9333 134.39 20.18 135.07 20.18C135.75 20.18 136.323 19.9333 136.79 19.44C137.27 18.9467 137.51 18.2733 137.51 17.42Z" fill="white"/>
<path d="M70.85 35.34H67.67L67.06 37H66.32L68.87 30.1H69.66L72.2 37H71.46L70.85 35.34ZM70.64 34.76L69.26 30.98L67.88 34.76H70.64ZM73.0034 34.26C73.0034 33.7 73.1168 33.21 73.3434 32.79C73.5701 32.3633 73.8801 32.0367 74.2734 31.81C74.6734 31.5767 75.1234 31.46 75.6234 31.46C76.1034 31.46 76.5368 31.5767 76.9234 31.81C77.3101 32.0433 77.5934 32.3467 77.7734 32.72V29.6H78.4734V37H77.7734V35.78C77.6068 36.16 77.3334 36.4733 76.9534 36.72C76.5734 36.96 76.1268 37.08 75.6134 37.08C75.1134 37.08 74.6634 36.9633 74.2634 36.73C73.8701 36.4967 73.5601 36.1667 73.3334 35.74C73.1134 35.3133 73.0034 34.82 73.0034 34.26ZM77.7734 34.27C77.7734 33.83 77.6834 33.4433 77.5034 33.11C77.3234 32.7767 77.0768 32.52 76.7634 32.34C76.4568 32.16 76.1168 32.07 75.7434 32.07C75.3568 32.07 75.0101 32.1567 74.7034 32.33C74.3968 32.5033 74.1534 32.7567 73.9734 33.09C73.8001 33.4167 73.7134 33.8067 73.7134 34.26C73.7134 34.7067 73.8001 35.1 73.9734 35.44C74.1534 35.7733 74.3968 36.03 74.7034 36.21C75.0101 36.3833 75.3568 36.47 75.7434 36.47C76.1168 36.47 76.4568 36.38 76.7634 36.2C77.0768 36.02 77.3234 35.7633 77.5034 35.43C77.6834 35.0967 77.7734 34.71 77.7734 34.27ZM88.0856 37H87.3856L83.5156 31.12V37H82.8156V30.01H83.5156L87.3856 35.88V30.01H88.0856V37ZM94.6111 33.99C94.6111 34.23 94.6044 34.4133 94.5911 34.54H90.0611C90.0811 34.9533 90.1811 35.3067 90.3611 35.6C90.5411 35.8933 90.7778 36.1167 91.0711 36.27C91.3644 36.4167 91.6844 36.49 92.0311 36.49C92.4844 36.49 92.8644 36.38 93.1711 36.16C93.4844 35.94 93.6911 35.6433 93.7911 35.27H94.5311C94.3978 35.8033 94.1111 36.24 93.6711 36.58C93.2378 36.9133 92.6911 37.08 92.0311 37.08C91.5178 37.08 91.0578 36.9667 90.6511 36.74C90.2444 36.5067 89.9244 36.18 89.6911 35.76C89.4644 35.3333 89.3511 34.8367 89.3511 34.27C89.3511 33.7033 89.4644 33.2067 89.6911 32.78C89.9178 32.3533 90.2344 32.0267 90.6411 31.8C91.0478 31.5733 91.5111 31.46 92.0311 31.46C92.5511 31.46 93.0044 31.5733 93.3911 31.8C93.7844 32.0267 94.0844 32.3333 94.2911 32.72C94.5044 33.1 94.6111 33.5233 94.6111 33.99ZM93.9011 33.97C93.9078 33.5633 93.8244 33.2167 93.6511 32.93C93.4844 32.6433 93.2544 32.4267 92.9611 32.28C92.6678 32.1333 92.3478 32.06 92.0011 32.06C91.4811 32.06 91.0378 32.2267 90.6711 32.56C90.3044 32.8933 90.1011 33.3633 90.0611 33.97H93.9011ZM96.8018 32.13V35.52C96.8018 35.8533 96.8651 36.0833 96.9918 36.21C97.1185 36.3367 97.3418 36.4 97.6618 36.4H98.3018V37H97.5518C97.0585 37 96.6918 36.8867 96.4518 36.66C96.2118 36.4267 96.0918 36.0467 96.0918 35.52V32.13H95.3318V31.54H96.0918V30.17H96.8018V31.54H98.3018V32.13H96.8018ZM106.656 31.54L104.946 37H104.246L102.736 32.42L101.226 37H100.516L98.8063 31.54H99.5163L100.876 36.29L102.406 31.54H103.106L104.616 36.3L105.966 31.54H106.656ZM110.001 37.08C109.487 37.08 109.024 36.9667 108.611 36.74C108.204 36.5067 107.881 36.18 107.641 35.76C107.407 35.3333 107.291 34.8367 107.291 34.27C107.291 33.7033 107.411 33.21 107.651 32.79C107.891 32.3633 108.217 32.0367 108.631 31.81C109.044 31.5767 109.507 31.46 110.021 31.46C110.534 31.46 110.997 31.5767 111.411 31.81C111.831 32.0367 112.157 32.3633 112.391 32.79C112.631 33.21 112.751 33.7033 112.751 34.27C112.751 34.83 112.631 35.3233 112.391 35.75C112.151 36.1767 111.821 36.5067 111.401 36.74C110.981 36.9667 110.514 37.08 110.001 37.08ZM110.001 36.47C110.361 36.47 110.694 36.39 111.001 36.23C111.307 36.0633 111.554 35.8167 111.741 35.49C111.934 35.1567 112.031 34.75 112.031 34.27C112.031 33.79 111.937 33.3867 111.751 33.06C111.564 32.7267 111.317 32.48 111.011 32.32C110.704 32.1533 110.371 32.07 110.011 32.07C109.651 32.07 109.317 32.1533 109.011 32.32C108.704 32.48 108.457 32.7267 108.271 33.06C108.091 33.3867 108.001 33.79 108.001 34.27C108.001 34.75 108.091 35.1567 108.271 35.49C108.457 35.8167 108.701 36.0633 109.001 36.23C109.307 36.39 109.641 36.47 110.001 36.47ZM114.727 32.51C114.88 32.17 115.113 31.9067 115.427 31.72C115.747 31.5333 116.137 31.44 116.597 31.44V32.17H116.407C115.9 32.17 115.493 32.3067 115.187 32.58C114.88 32.8533 114.727 33.31 114.727 33.95V37H114.027V31.54H114.727V32.51ZM120.6 37L118.35 34.55V37H117.65V29.6H118.35V33.98L120.55 31.54H121.53L118.94 34.26L121.55 37H120.6Z" fill="white"/>
<ellipse cx="10.0381" cy="30" rx="10.0381" ry="9.99999" fill="#FFA500"/>
<ellipse cx="27.4726" cy="20" rx="20.0761" ry="20" fill="white"/>
<ellipse cx="45.9619" cy="9.99999" rx="10.0381" ry="9.99999" fill="#0085FF"/>
</svg>