<svg xmlns:xlink="http://www.w3.org/1999/xlink"  width="98" height="95" viewBox="0 0 98 95" fill="none" xmlns="http://www.w3.org/2000/svg">
<g filter="url(#filter0_d_465_3608)">
<path d="M44.9871 34.3964V10.6984L28.2188 56.964L44.9871 34.3964Z" fill="white"/>
<path d="M44.9871 10.6984V34.3964L61.7555 56.964L44.9871 10.6984Z" fill="white"/>
<path d="M2.3227 79.3094L2.31965 79.4381H1.02539V77.2959H2.31965V77.4246H1.18259V78.2906H2.12887V78.4162H1.18259V79.3094H2.3227Z" fill="white"/>
<path d="M5.00969 77.9318V79.4381H4.9288C4.90336 79.4381 4.88861 79.425 4.88454 79.3988L4.8708 79.1747C4.80059 79.2615 4.71919 79.3311 4.6266 79.3836C4.53502 79.4361 4.43277 79.4623 4.31982 79.4623C4.23537 79.4623 4.1616 79.4492 4.09852 79.423C4.03543 79.3967 3.98303 79.3589 3.94131 79.3094C3.8996 79.26 3.86805 79.2004 3.84669 79.1308C3.82532 79.0611 3.81463 78.9824 3.81463 78.8946V77.9318H3.96115V78.8946C3.96115 79.0359 3.99371 79.1469 4.05883 79.2277C4.12395 79.3074 4.22316 79.3473 4.35645 79.3473C4.45515 79.3473 4.54723 79.3226 4.6327 79.2731C4.71919 79.2226 4.79601 79.153 4.86317 79.0642V77.9318H5.00969Z" fill="white"/>
<path d="M6.83906 78.2951C6.86247 78.2335 6.88892 78.179 6.91843 78.1316C6.94895 78.0832 6.98355 78.0423 7.02221 78.009C7.0619 77.9757 7.10565 77.9504 7.15347 77.9333C7.20231 77.9151 7.25624 77.906 7.31525 77.906C7.3468 77.906 7.37783 77.909 7.40835 77.9151C7.43888 77.9202 7.46584 77.9297 7.48925 77.9439L7.47704 78.0438C7.47195 78.0599 7.46228 78.068 7.44804 78.068C7.43583 78.068 7.417 78.0645 7.39157 78.0574C7.36715 78.0503 7.33459 78.0468 7.29389 78.0468C7.23487 78.0468 7.18247 78.0559 7.13668 78.0741C7.09191 78.0912 7.05121 78.1175 7.01458 78.1528C6.97897 78.1881 6.94743 78.232 6.91995 78.2845C6.8935 78.336 6.86908 78.3955 6.84669 78.4631V79.4381H6.70018V77.9318H6.77801C6.79531 77.9318 6.80752 77.9353 6.81464 77.9424C6.82177 77.9494 6.82634 77.9615 6.82838 77.9787L6.83906 78.2951Z" fill="white"/>
<path d="M9.48465 77.9075C9.59352 77.9075 9.69069 77.9262 9.77616 77.9636C9.86265 77.9999 9.9354 78.0519 9.99442 78.1195C10.0534 78.1871 10.0982 78.2689 10.1287 78.3647C10.1603 78.4596 10.176 78.5661 10.176 78.6842C10.176 78.8023 10.1603 78.9087 10.1287 79.0036C10.0982 79.0985 10.0534 79.1797 9.99442 79.2474C9.9354 79.315 9.86265 79.367 9.77616 79.4033C9.69069 79.4396 9.59352 79.4578 9.48465 79.4578C9.37578 79.4578 9.2781 79.4396 9.19161 79.4033C9.10614 79.367 9.03339 79.315 8.97336 79.2474C8.91434 79.1797 8.86906 79.0985 8.83752 79.0036C8.80699 78.9087 8.79173 78.8023 8.79173 78.6842C8.79173 78.5661 8.80699 78.4596 8.83752 78.3647C8.86906 78.2689 8.91434 78.1871 8.97336 78.1195C9.03339 78.0519 9.10614 77.9999 9.19161 77.9636C9.2781 77.9262 9.37578 77.9075 9.48465 77.9075ZM9.48465 79.3443C9.57521 79.3443 9.65406 79.3291 9.72122 79.2988C9.78939 79.2675 9.84586 79.2231 9.89063 79.1656C9.93642 79.1081 9.97051 79.0389 9.99289 78.9582C10.0153 78.8764 10.0265 78.7851 10.0265 78.6842C10.0265 78.5843 10.0153 78.4934 9.99289 78.4117C9.97051 78.3299 9.93642 78.2603 9.89063 78.2028C9.84586 78.1442 9.78939 78.0993 9.72122 78.068C9.65406 78.0367 9.57521 78.0211 9.48465 78.0211C9.39409 78.0211 9.31473 78.0367 9.24656 78.068C9.1794 78.0993 9.12293 78.1442 9.07714 78.2028C9.03237 78.2603 8.99828 78.3299 8.97488 78.4117C8.9525 78.4934 8.94131 78.5843 8.94131 78.6842C8.94131 78.7851 8.9525 78.8764 8.97488 78.9582C8.99828 79.0389 9.03237 79.1081 9.07714 79.1656C9.12293 79.2231 9.1794 79.2675 9.24656 79.2988C9.31473 79.3291 9.39409 79.3443 9.48465 79.3443Z" fill="white"/>
<path d="M11.9224 79.1096C11.9519 79.153 11.9825 79.1898 12.014 79.2201C12.0466 79.2494 12.0806 79.2736 12.1163 79.2928C12.1519 79.3109 12.1895 79.3241 12.2292 79.3321C12.2699 79.3402 12.3126 79.3443 12.3574 79.3443C12.4469 79.3443 12.5253 79.3281 12.5925 79.2958C12.6596 79.2635 12.7156 79.2181 12.7603 79.1596C12.8061 79.1 12.8402 79.0294 12.8626 78.9476C12.886 78.8648 12.8977 78.774 12.8977 78.6751C12.8977 78.451 12.856 78.2865 12.7725 78.1816C12.6891 78.0756 12.5696 78.0226 12.4139 78.0226C12.3131 78.0226 12.2221 78.0483 12.1407 78.0998C12.0593 78.1513 11.9865 78.2229 11.9224 78.3148V79.1096ZM11.9163 78.2028C11.9835 78.1119 12.0618 78.0398 12.1514 77.9863C12.2419 77.9328 12.3432 77.906 12.4551 77.906C12.6413 77.906 12.7863 77.9701 12.8901 78.0983C12.9949 78.2265 13.0473 78.4187 13.0473 78.6751C13.0473 78.7851 13.0325 78.8881 13.003 78.9839C12.9745 79.0788 12.9318 79.1616 12.8748 79.2322C12.8188 79.3019 12.7497 79.3569 12.6672 79.3972C12.5858 79.4376 12.4917 79.4578 12.3849 79.4578C12.2821 79.4578 12.1931 79.4391 12.1178 79.4018C12.0425 79.3644 11.9774 79.3094 11.9224 79.2368V79.971H11.7759V77.9318H11.8568C11.8822 77.9318 11.897 77.9444 11.9011 77.9696L11.9163 78.2028Z" fill="white"/>
<path d="M15.7159 78.5328C15.7159 78.452 15.7042 78.3799 15.6808 78.3163C15.6585 78.2517 15.6264 78.1972 15.5847 78.1528C15.543 78.1084 15.4931 78.0746 15.4351 78.0514C15.3781 78.0271 15.315 78.015 15.2459 78.015C15.1675 78.015 15.0973 78.0271 15.0352 78.0514C14.9732 78.0756 14.9192 78.1104 14.8735 78.1558C14.8287 78.2012 14.7926 78.2557 14.7651 78.3193C14.7376 78.3829 14.7193 78.4541 14.7101 78.5328H15.7159ZM14.7025 78.6251V78.6539C14.7025 78.7669 14.7157 78.8664 14.7422 78.9521C14.7687 79.0379 14.8063 79.1101 14.8551 79.1686C14.904 79.2262 14.963 79.2696 15.0322 79.2988C15.1014 79.3281 15.1787 79.3427 15.2642 79.3427C15.3405 79.3427 15.4066 79.3347 15.4626 79.3185C15.5185 79.3014 15.5654 79.2827 15.603 79.2625C15.6417 79.2413 15.6722 79.2226 15.6946 79.2065C15.717 79.1893 15.7332 79.1807 15.7434 79.1807C15.7566 79.1807 15.7668 79.1858 15.7739 79.1959L15.8136 79.2443C15.7892 79.2746 15.7566 79.3029 15.7159 79.3291C15.6763 79.3554 15.6315 79.3781 15.5816 79.3972C15.5328 79.4154 15.4799 79.43 15.4229 79.4411C15.3669 79.4522 15.3105 79.4578 15.2535 79.4578C15.1497 79.4578 15.0551 79.4401 14.9696 79.4048C14.8841 79.3685 14.8109 79.316 14.7498 79.2474C14.6888 79.1787 14.6415 79.095 14.6079 78.996C14.5753 78.8961 14.559 78.7821 14.559 78.6539C14.559 78.5459 14.5743 78.4465 14.6048 78.3557C14.6364 78.2638 14.6811 78.1851 14.7391 78.1195C14.7982 78.0529 14.8699 78.0009 14.9543 77.9636C15.0398 77.9262 15.1365 77.9075 15.2443 77.9075C15.3298 77.9075 15.4092 77.9222 15.4824 77.9514C15.5557 77.9807 15.6193 78.0236 15.6732 78.0801C15.7271 78.1356 15.7694 78.2043 15.7999 78.286C15.8314 78.3678 15.8472 78.4616 15.8472 78.5676C15.8472 78.5898 15.8441 78.605 15.838 78.613C15.8319 78.6211 15.8218 78.6251 15.8075 78.6251H14.7025Z" fill="white"/>
<path d="M18.283 78.7099C18.1386 78.715 18.0139 78.7266 17.9091 78.7447C17.8053 78.7619 17.7194 78.7856 17.6512 78.8159C17.584 78.8462 17.5342 78.8825 17.5016 78.9249C17.469 78.9663 17.4528 79.0137 17.4528 79.0672C17.4528 79.1177 17.4609 79.1616 17.4772 79.1989C17.4945 79.2352 17.5169 79.2655 17.5443 79.2898C17.5728 79.313 17.6054 79.3301 17.642 79.3412C17.6787 79.3523 17.7168 79.3579 17.7565 79.3579C17.8155 79.3579 17.8694 79.3518 17.9183 79.3397C17.9681 79.3266 18.0139 79.3089 18.0556 79.2867C18.0984 79.2635 18.1381 79.2363 18.1747 79.205C18.2113 79.1737 18.2474 79.1399 18.283 79.1035V78.7099ZM17.3902 78.1452C17.4696 78.0665 17.553 78.007 17.6405 77.9666C17.728 77.9262 17.8272 77.906 17.9381 77.906C18.0195 77.906 18.0907 77.9191 18.1518 77.9454C18.2128 77.9706 18.2632 78.0075 18.3029 78.0559C18.3436 78.1033 18.3741 78.1614 18.3945 78.23C18.4148 78.2976 18.425 78.3733 18.425 78.4571V79.4381H18.367C18.3365 79.4381 18.3176 79.424 18.3105 79.3957L18.2892 79.2019C18.2474 79.2423 18.2057 79.2786 18.164 79.3109C18.1233 79.3432 18.0806 79.3705 18.0358 79.3927C17.991 79.4149 17.9427 79.4321 17.8908 79.4442C17.8389 79.4563 17.7819 79.4623 17.7199 79.4623C17.668 79.4623 17.6176 79.4548 17.5688 79.4396C17.5199 79.4245 17.4762 79.4013 17.4375 79.37C17.3999 79.3387 17.3693 79.2988 17.3459 79.2504C17.3235 79.2009 17.3124 79.1419 17.3124 79.0733C17.3124 79.0097 17.3307 78.9506 17.3673 78.8961C17.4039 78.8416 17.4614 78.7942 17.5398 78.7538C17.6181 78.7134 17.7183 78.6812 17.8404 78.6569C17.9636 78.6327 18.1111 78.6186 18.283 78.6145V78.4571C18.283 78.3178 18.2525 78.2108 18.1915 78.1361C18.1314 78.0604 18.0419 78.0226 17.9229 78.0226C17.8496 78.0226 17.787 78.0327 17.7351 78.0529C17.6842 78.0731 17.641 78.0953 17.6054 78.1195C17.5698 78.1437 17.5408 78.1659 17.5184 78.1861C17.496 78.2063 17.4772 78.2164 17.4619 78.2164C17.4507 78.2164 17.4416 78.2139 17.4345 78.2088C17.4273 78.2038 17.4212 78.1972 17.4161 78.1891L17.3902 78.1452Z" fill="white"/>
<path d="M20.2408 78.1952C20.3111 78.1084 20.3919 78.0387 20.4835 77.9863C20.5761 77.9338 20.6789 77.9075 20.7918 77.9075C20.8753 77.9075 20.9485 77.9207 21.0116 77.9469C21.0757 77.9731 21.1286 78.011 21.1703 78.0604C21.212 78.1099 21.2436 78.1694 21.265 78.2391C21.2863 78.3087 21.297 78.3875 21.297 78.4753V79.4381H21.1505V78.4753C21.1505 78.334 21.1179 78.2234 21.0528 78.1437C20.9877 78.063 20.8885 78.0226 20.7552 78.0226C20.6565 78.0226 20.5639 78.0478 20.4774 78.0983C20.3919 78.1477 20.3156 78.2169 20.2485 78.3057V79.4381H20.102V77.9318H20.1828C20.2083 77.9318 20.223 77.9444 20.2271 77.9696L20.2408 78.1952Z" fill="white"/>
<path d="M25.1517 77.9318V79.4381H25.0067V77.9318H25.1517ZM25.2142 77.4125C25.2142 77.4306 25.2102 77.4478 25.202 77.464C25.1949 77.4791 25.1852 77.4927 25.173 77.5048C25.1608 77.5169 25.1466 77.5265 25.1303 77.5336C25.114 77.5407 25.0967 77.5442 25.0784 77.5442C25.0601 77.5442 25.0428 77.5407 25.0265 77.5336C25.0102 77.5265 24.996 77.5169 24.9838 77.5048C24.9716 77.4927 24.9619 77.4791 24.9548 77.464C24.9477 77.4478 24.9441 77.4306 24.9441 77.4125C24.9441 77.3943 24.9477 77.3772 24.9548 77.361C24.9619 77.3439 24.9716 77.3292 24.9838 77.3171C24.996 77.305 25.0102 77.2954 25.0265 77.2883C25.0428 77.2813 25.0601 77.2777 25.0784 77.2777C25.0967 77.2777 25.114 77.2813 25.1303 77.2883C25.1466 77.2954 25.1608 77.305 25.173 77.3171C25.1852 77.3292 25.1949 77.3439 25.202 77.361C25.2102 77.3772 25.2142 77.3943 25.2142 77.4125Z" fill="white"/>
<path d="M28.6206 78.4662V79.2277C28.5127 79.3034 28.3977 79.3614 28.2756 79.4018C28.1535 79.4422 28.0162 79.4623 27.8635 79.4623C27.6926 79.4623 27.539 79.4366 27.4026 79.3851C27.2663 79.3326 27.1498 79.259 27.0531 79.1641C26.9575 79.0682 26.8837 78.9526 26.8318 78.8174C26.7809 78.6822 26.7555 78.5318 26.7555 78.3663C26.7555 78.2007 26.7804 78.0509 26.8303 77.9166C26.8812 77.7814 26.9534 77.6663 27.047 77.5714C27.1416 77.4756 27.2556 77.4019 27.3889 77.3504C27.5222 77.2979 27.6723 77.2717 27.8391 77.2717C27.9215 77.2717 27.9974 77.2772 28.0665 77.2883C28.1367 77.2994 28.2019 77.3161 28.2619 77.3383C28.3219 77.3595 28.3779 77.3862 28.4298 77.4185C28.4817 77.4498 28.5315 77.4862 28.5794 77.5275L28.5366 77.5942C28.5224 77.6184 28.501 77.6239 28.4725 77.6108C28.4573 77.6048 28.4354 77.5906 28.4069 77.5684C28.3784 77.5462 28.3392 77.523 28.2894 77.4988C28.2395 77.4746 28.1774 77.4529 28.1032 77.4337C28.0299 77.4145 27.9404 77.4049 27.8346 77.4049C27.6941 77.4049 27.5669 77.4271 27.453 77.4715C27.34 77.5159 27.2434 77.5795 27.163 77.6623C27.0836 77.745 27.0221 77.846 26.9783 77.9651C26.9356 78.0842 26.9142 78.2179 26.9142 78.3663C26.9142 78.5166 26.9356 78.6519 26.9783 78.772C27.0221 78.8921 27.0847 78.994 27.1661 79.0778C27.2485 79.1616 27.3482 79.2257 27.4652 79.2701C27.5822 79.3145 27.714 79.3367 27.8605 79.3367C27.9246 79.3367 27.9836 79.3326 28.0375 79.3246C28.0925 79.3165 28.1444 79.3054 28.1932 79.2913C28.2431 79.2761 28.2909 79.258 28.3367 79.2368C28.3835 79.2146 28.4308 79.1898 28.4786 79.1626V78.5858H28.065C28.0538 78.5858 28.0442 78.5822 28.036 78.5752C28.0289 78.5681 28.0253 78.56 28.0253 78.551V78.4662H28.6206Z" fill="white"/>
<path d="M31.0976 78.7099C30.9531 78.715 30.8284 78.7266 30.7236 78.7447C30.6199 78.7619 30.5339 78.7856 30.4657 78.8159C30.3986 78.8462 30.3487 78.8825 30.3161 78.9249C30.2836 78.9663 30.2673 79.0137 30.2673 79.0672C30.2673 79.1177 30.2754 79.1616 30.2917 79.1989C30.309 79.2352 30.3314 79.2655 30.3589 79.2898C30.3874 79.313 30.4199 79.3301 30.4566 79.3412C30.4932 79.3523 30.5313 79.3579 30.571 79.3579C30.63 79.3579 30.684 79.3518 30.7328 79.3397C30.7827 79.3266 30.8284 79.3089 30.8702 79.2867C30.9129 79.2635 30.9526 79.2363 30.9892 79.205C31.0258 79.1737 31.062 79.1399 31.0976 79.1035V78.7099ZM30.2047 78.1452C30.2841 78.0665 30.3675 78.007 30.455 77.9666C30.5425 77.9262 30.6417 77.906 30.7526 77.906C30.834 77.906 30.9053 77.9191 30.9663 77.9454C31.0274 77.9706 31.0777 78.0075 31.1174 78.0559C31.1581 78.1033 31.1886 78.1614 31.209 78.23C31.2293 78.2976 31.2395 78.3733 31.2395 78.4571V79.4381H31.1815C31.151 79.4381 31.1322 79.424 31.125 79.3957L31.1037 79.2019C31.062 79.2423 31.0202 79.2786 30.9785 79.3109C30.9378 79.3432 30.8951 79.3705 30.8503 79.3927C30.8056 79.4149 30.7572 79.4321 30.7053 79.4442C30.6534 79.4563 30.5965 79.4623 30.5344 79.4623C30.4825 79.4623 30.4321 79.4548 30.3833 79.4396C30.3344 79.4245 30.2907 79.4013 30.252 79.37C30.2144 79.3387 30.1839 79.2988 30.1605 79.2504C30.1381 79.2009 30.1269 79.1419 30.1269 79.0733C30.1269 79.0097 30.1452 78.9506 30.1818 78.8961C30.2185 78.8416 30.2759 78.7942 30.3543 78.7538C30.4326 78.7134 30.5329 78.6812 30.655 78.6569C30.7781 78.6327 30.9256 78.6186 31.0976 78.6145V78.4571C31.0976 78.3178 31.0671 78.2108 31.006 78.1361C30.946 78.0604 30.8564 78.0226 30.7374 78.0226C30.6641 78.0226 30.6015 78.0327 30.5497 78.0529C30.4988 78.0731 30.4555 78.0953 30.4199 78.1195C30.3843 78.1437 30.3553 78.1659 30.3329 78.1861C30.3105 78.2063 30.2917 78.2164 30.2765 78.2164C30.2653 78.2164 30.2561 78.2139 30.249 78.2088C30.2419 78.2038 30.2358 78.1972 30.2307 78.1891L30.2047 78.1452Z" fill="white"/>
<path d="M32.9165 79.4381V77.9318H32.9974C33.0228 77.9318 33.0376 77.9444 33.0416 77.9696L33.0554 78.1876C33.1144 78.1038 33.182 78.0362 33.2584 77.9847C33.3347 77.9333 33.4207 77.9075 33.5163 77.9075C33.6272 77.9075 33.7157 77.9393 33.7819 78.0029C33.849 78.0665 33.8943 78.1548 33.9177 78.2678C33.936 78.2063 33.9615 78.1528 33.994 78.1074C34.0276 78.062 34.0657 78.0246 34.1085 77.9953C34.1512 77.9651 34.1975 77.9429 34.2474 77.9287C34.2982 77.9146 34.3501 77.9075 34.403 77.9075C34.4783 77.9075 34.546 77.9202 34.606 77.9454C34.6661 77.9696 34.7169 78.0059 34.7587 78.0544C34.8004 78.1028 34.8324 78.1624 34.8548 78.233C34.8772 78.3037 34.8884 78.3844 34.8884 78.4753V79.4381H34.7434V78.4753C34.7434 78.3279 34.7113 78.2159 34.6472 78.1392C34.5831 78.0615 34.4916 78.0226 34.3725 78.0226C34.3196 78.0226 34.2687 78.0322 34.2199 78.0514C34.1721 78.0705 34.1293 78.0993 34.0917 78.1377C34.0551 78.175 34.0256 78.2219 34.0032 78.2784C33.9818 78.335 33.9711 78.4006 33.9711 78.4753V79.4381H33.8246V78.4753C33.8246 78.3289 33.7951 78.2169 33.7361 78.1392C33.6781 78.0615 33.5926 78.0226 33.4797 78.0226C33.3973 78.0226 33.3209 78.0468 33.2507 78.0953C33.1805 78.1437 33.1179 78.2108 33.063 78.2966V79.4381H32.9165Z" fill="white"/>
<path d="M36.725 77.9318V79.4381H36.5801V77.9318H36.725ZM36.7876 77.4125C36.7876 77.4306 36.7836 77.4478 36.7754 77.464C36.7683 77.4791 36.7586 77.4927 36.7464 77.5048C36.7342 77.5169 36.72 77.5265 36.7037 77.5336C36.6874 77.5407 36.6701 77.5442 36.6518 77.5442C36.6335 77.5442 36.6162 77.5407 36.5999 77.5336C36.5836 77.5265 36.5694 77.5169 36.5572 77.5048C36.5449 77.4927 36.5353 77.4791 36.5282 77.464C36.521 77.4478 36.5175 77.4306 36.5175 77.4125C36.5175 77.3943 36.521 77.3772 36.5282 77.361C36.5353 77.3439 36.5449 77.3292 36.5572 77.3171C36.5694 77.305 36.5836 77.2954 36.5999 77.2883C36.6162 77.2813 36.6335 77.2777 36.6518 77.2777C36.6701 77.2777 36.6874 77.2813 36.7037 77.2883C36.72 77.2954 36.7342 77.305 36.7464 77.3171C36.7586 77.3292 36.7683 77.3439 36.7754 77.361C36.7836 77.3772 36.7876 77.3943 36.7876 77.4125Z" fill="white"/>
<path d="M38.5723 78.1952C38.6425 78.1084 38.7234 78.0387 38.815 77.9863C38.9076 77.9338 39.0103 77.9075 39.1233 77.9075C39.2067 77.9075 39.28 77.9207 39.343 77.9469C39.4071 77.9731 39.4601 78.011 39.5018 78.0604C39.5435 78.1099 39.575 78.1694 39.5964 78.2391C39.6178 78.3087 39.6284 78.3875 39.6284 78.4753V79.4381H39.4819V78.4753C39.4819 78.334 39.4494 78.2234 39.3843 78.1437C39.3191 78.063 39.2199 78.0226 39.0866 78.0226C38.9879 78.0226 38.8953 78.0478 38.8089 78.0983C38.7234 78.1477 38.6471 78.2169 38.5799 78.3057V79.4381H38.4334V77.9318H38.5143C38.5397 77.9318 38.5545 77.9444 38.5585 77.9696L38.5723 78.1952Z" fill="white"/>
<path d="M41.7982 78.772C41.8633 78.772 41.9213 78.7629 41.9722 78.7447C42.023 78.7256 42.0658 78.6993 42.1004 78.666C42.135 78.6327 42.1614 78.5928 42.1797 78.5464C42.1981 78.5 42.2072 78.4485 42.2072 78.392C42.2072 78.3355 42.1975 78.284 42.1782 78.2376C42.1599 78.1901 42.1329 78.1498 42.0973 78.1165C42.0627 78.0832 42.02 78.0574 41.9691 78.0392C41.9193 78.0211 41.8623 78.012 41.7982 78.012C41.7341 78.012 41.6766 78.0211 41.6257 78.0392C41.5759 78.0574 41.5331 78.0832 41.4975 78.1165C41.4629 78.1498 41.4365 78.1901 41.4181 78.2376C41.3998 78.284 41.3907 78.3355 41.3907 78.392C41.3907 78.4485 41.3998 78.5 41.4181 78.5464C41.4365 78.5928 41.4629 78.6327 41.4975 78.666C41.5331 78.6993 41.5759 78.7256 41.6257 78.7447C41.6766 78.7629 41.7341 78.772 41.7982 78.772ZM42.3659 79.5395C42.3659 79.4921 42.3532 79.4543 42.3278 79.426C42.3034 79.3967 42.2703 79.374 42.2286 79.3579C42.1869 79.3417 42.1385 79.3306 42.0836 79.3246C42.0297 79.3175 41.9727 79.3125 41.9126 79.3094C41.8536 79.3064 41.7941 79.3034 41.7341 79.3003C41.674 79.2973 41.6176 79.2913 41.5647 79.2822C41.526 79.2973 41.4904 79.315 41.4578 79.3352C41.4253 79.3543 41.3973 79.3765 41.3739 79.4018C41.3505 79.427 41.3322 79.4543 41.3189 79.4835C41.3057 79.5138 41.2991 79.5461 41.2991 79.5804C41.2991 79.6248 41.3103 79.6657 41.3327 79.7031C41.3561 79.7414 41.3897 79.7742 41.4334 79.8015C41.4782 79.8297 41.5326 79.8519 41.5967 79.8681C41.6608 79.8842 41.7346 79.8923 41.818 79.8923C41.8954 79.8923 41.9671 79.8837 42.0332 79.8666C42.1004 79.8494 42.1584 79.8252 42.2072 79.7939C42.2571 79.7626 42.2957 79.7253 42.3232 79.6819C42.3517 79.6385 42.3659 79.591 42.3659 79.5395ZM42.5247 77.9984V78.0483C42.5247 78.0705 42.5104 78.0842 42.4819 78.0892L42.2499 78.1059C42.2784 78.1442 42.3003 78.1871 42.3156 78.2345C42.3308 78.282 42.3385 78.3335 42.3385 78.389C42.3385 78.4616 42.3252 78.5277 42.2988 78.5873C42.2733 78.6458 42.2367 78.6963 42.1889 78.7387C42.1421 78.7801 42.0851 78.8124 42.018 78.8356C41.9518 78.8588 41.8786 78.8704 41.7982 78.8704C41.7117 78.8704 41.6328 78.8573 41.5616 78.831C41.5189 78.8553 41.4848 78.884 41.4594 78.9173C41.4349 78.9496 41.4227 78.9819 41.4227 79.0142C41.4227 79.0576 41.438 79.0909 41.4685 79.1141C41.5 79.1373 41.5407 79.1545 41.5906 79.1656C41.6415 79.1757 41.699 79.1823 41.7631 79.1853C41.8282 79.1883 41.8943 79.1918 41.9615 79.1959C42.0286 79.1989 42.0943 79.205 42.1584 79.2141C42.2235 79.2231 42.281 79.2393 42.3308 79.2625C42.3817 79.2847 42.4224 79.3165 42.4529 79.3579C42.4845 79.3982 42.5003 79.4522 42.5003 79.5199C42.5003 79.5824 42.4845 79.6425 42.4529 79.7C42.4214 79.7576 42.3756 79.8085 42.3156 79.8529C42.2566 79.8973 42.1848 79.9327 42.1004 79.9589C42.0159 79.9862 41.9213 79.9998 41.8165 79.9998C41.7097 79.9998 41.616 79.9887 41.5357 79.9665C41.4553 79.9453 41.3876 79.916 41.3327 79.8787C41.2787 79.8423 41.238 79.7999 41.2106 79.7515C41.1831 79.7031 41.1694 79.6516 41.1694 79.5971C41.1694 79.5173 41.1958 79.4492 41.2487 79.3927C41.3016 79.3352 41.3739 79.2903 41.4655 79.258C41.4146 79.2408 41.3734 79.2161 41.3418 79.1838C41.3113 79.1505 41.296 79.1056 41.296 79.049C41.296 79.0278 41.3001 79.0056 41.3083 78.9824C41.3164 78.9592 41.3286 78.9365 41.3449 78.9143C41.3612 78.8911 41.381 78.8694 41.4044 78.8492C41.4278 78.829 41.4543 78.8108 41.4838 78.7947C41.4115 78.7533 41.3551 78.6983 41.3144 78.6297C41.2747 78.561 41.2548 78.4808 41.2548 78.389C41.2548 78.3163 41.2676 78.2507 41.293 78.1922C41.3194 78.1326 41.3566 78.0816 41.4044 78.0392C41.4522 77.9969 41.5092 77.9641 41.5753 77.9408C41.6425 77.9176 41.7168 77.906 41.7982 77.906C41.8653 77.906 41.9269 77.9141 41.9829 77.9302C42.0398 77.9464 42.0907 77.9691 42.1355 77.9984H42.5247Z" fill="white"/>
<path d="M47.4368 79.3094L47.4338 79.4381H46.1395V77.2959H47.4338V77.4246H46.2967V78.2906H47.243V78.4162H46.2967V79.3094H47.4368Z" fill="white"/>
<path d="M50.1462 79.4381H50.0073C49.993 79.4381 49.9818 79.4341 49.9737 79.426C49.9656 79.4169 49.9589 79.4083 49.9539 79.4003L49.4929 78.7326C49.4889 78.7508 49.4812 78.7685 49.47 78.7856L49.0305 79.4003C49.0234 79.4093 49.0157 79.4179 49.0076 79.426C49.0005 79.4341 48.9908 79.4381 48.9786 79.4381H48.8473L49.3998 78.6675L48.8687 77.9318H49.0076C49.0218 77.9318 49.0325 77.9348 49.0396 77.9408C49.0468 77.9469 49.0529 77.954 49.0579 77.962L49.5036 78.5994C49.5056 78.5913 49.5087 78.5827 49.5128 78.5737C49.5179 78.5646 49.5229 78.5555 49.528 78.5464L49.9447 77.9636C49.9508 77.9545 49.9574 77.9469 49.9645 77.9408C49.9717 77.9348 49.9808 77.9318 49.992 77.9318H50.1248L49.5952 78.6584L50.1462 79.4381Z" fill="white"/>
<path d="M52.6088 78.1331C52.6037 78.1382 52.5986 78.1427 52.5936 78.1467C52.5895 78.1498 52.5834 78.1513 52.5752 78.1513C52.5651 78.1513 52.5513 78.1447 52.534 78.1316C52.5167 78.1175 52.4933 78.1023 52.4638 78.0862C52.4343 78.07 52.3972 78.0554 52.3524 78.0423C52.3087 78.0281 52.2552 78.0211 52.1922 78.0211C52.1046 78.0211 52.0268 78.0367 51.9586 78.068C51.8915 78.0983 51.8345 78.1422 51.7877 78.1997C51.7409 78.2573 51.7053 78.3269 51.6809 78.4086C51.6575 78.4904 51.6457 78.5822 51.6457 78.6842C51.6457 78.7902 51.658 78.884 51.6824 78.9658C51.7078 79.0475 51.7434 79.1167 51.7892 79.1732C51.835 79.2287 51.8905 79.2711 51.9556 79.3003C52.0207 79.3296 52.0929 79.3443 52.1723 79.3443C52.2456 79.3443 52.3066 79.3357 52.3555 79.3185C52.4053 79.3014 52.446 79.2827 52.4776 79.2625C52.5101 79.2423 52.5356 79.2236 52.5539 79.2065C52.5722 79.1893 52.5874 79.1807 52.5997 79.1807C52.6119 79.1807 52.622 79.1858 52.6302 79.1959L52.6683 79.2443C52.6449 79.2746 52.6154 79.3029 52.5798 79.3291C52.5442 79.3554 52.504 79.3781 52.4592 79.3972C52.4145 79.4164 52.3656 79.431 52.3127 79.4411C52.2608 79.4522 52.2064 79.4578 52.1494 79.4578C52.0527 79.4578 51.9642 79.4406 51.8839 79.4063C51.8045 79.371 51.7358 79.3205 51.6778 79.2549C51.6208 79.1883 51.5761 79.1071 51.5435 79.0112C51.512 78.9153 51.4962 78.8063 51.4962 78.6842C51.4962 78.5691 51.5114 78.4642 51.542 78.3693C51.5725 78.2744 51.6173 78.1927 51.6763 78.124C51.7353 78.0554 51.807 78.0024 51.8915 77.9651C51.9769 77.9267 52.0746 77.9075 52.1845 77.9075C52.2832 77.9075 52.3707 77.9232 52.447 77.9545C52.5233 77.9858 52.59 78.0281 52.647 78.0816L52.6088 78.1331Z" fill="white"/>
<path d="M55.2535 78.5328C55.2535 78.452 55.2418 78.3799 55.2184 78.3163C55.1961 78.2517 55.164 78.1972 55.1223 78.1528C55.0806 78.1084 55.0307 78.0746 54.9727 78.0514C54.9157 78.0271 54.8526 78.015 54.7835 78.015C54.7051 78.015 54.6349 78.0271 54.5728 78.0514C54.5108 78.0756 54.4568 78.1104 54.4111 78.1558C54.3663 78.2012 54.3302 78.2557 54.3027 78.3193C54.2752 78.3829 54.2569 78.4541 54.2477 78.5328H55.2535ZM54.2401 78.6251V78.6539C54.2401 78.7669 54.2533 78.8664 54.2798 78.9521C54.3063 79.0379 54.3439 79.1101 54.3927 79.1686C54.4416 79.2262 54.5006 79.2696 54.5698 79.2988C54.639 79.3281 54.7163 79.3427 54.8018 79.3427C54.8781 79.3427 54.9442 79.3347 55.0002 79.3185C55.0561 79.3014 55.103 79.2827 55.1406 79.2625C55.1793 79.2413 55.2098 79.2226 55.2322 79.2065C55.2546 79.1893 55.2708 79.1807 55.281 79.1807C55.2942 79.1807 55.3044 79.1858 55.3115 79.1959L55.3512 79.2443C55.3268 79.2746 55.2942 79.3029 55.2535 79.3291C55.2139 79.3554 55.1691 79.3781 55.1192 79.3972C55.0704 79.4154 55.0175 79.43 54.9605 79.4411C54.9045 79.4522 54.8481 79.4578 54.7911 79.4578C54.6873 79.4578 54.5927 79.4401 54.5072 79.4048C54.4217 79.3685 54.3485 79.316 54.2874 79.2474C54.2264 79.1787 54.1791 79.095 54.1455 78.996C54.1129 78.8961 54.0966 78.7821 54.0966 78.6539C54.0966 78.5459 54.1119 78.4465 54.1424 78.3557C54.174 78.2638 54.2187 78.1851 54.2767 78.1195C54.3358 78.0529 54.4075 78.0009 54.4919 77.9636C54.5774 77.9262 54.6741 77.9075 54.7819 77.9075C54.8674 77.9075 54.9468 77.9222 55.02 77.9514C55.0933 77.9807 55.1569 78.0236 55.2108 78.0801C55.2647 78.1356 55.307 78.2043 55.3375 78.286C55.369 78.3678 55.3848 78.4616 55.3848 78.5676C55.3848 78.5898 55.3817 78.605 55.3756 78.613C55.3695 78.6211 55.3594 78.6251 55.3451 78.6251H54.2401Z" fill="white"/>
<path d="M57.1308 77.2354V79.4381H56.9843V77.2354H57.1308Z" fill="white"/>
<path d="M58.995 77.2354V79.4381H58.8484V77.2354H58.995Z" fill="white"/>
<path d="M61.7642 78.5328C61.7642 78.452 61.7525 78.3799 61.7291 78.3163C61.7067 78.2517 61.6746 78.1972 61.6329 78.1528C61.5912 78.1084 61.5414 78.0746 61.4834 78.0514C61.4264 78.0271 61.3633 78.015 61.2941 78.015C61.2158 78.015 61.1455 78.0271 61.0835 78.0514C61.0214 78.0756 60.9675 78.1104 60.9217 78.1558C60.8769 78.2012 60.8408 78.2557 60.8133 78.3193C60.7859 78.3829 60.7675 78.4541 60.7584 78.5328H61.7642ZM60.7508 78.6251V78.6539C60.7508 78.7669 60.764 78.8664 60.7904 78.9521C60.8169 79.0379 60.8545 79.1101 60.9034 79.1686C60.9522 79.2262 61.0112 79.2696 61.0804 79.2988C61.1496 79.3281 61.2269 79.3427 61.3124 79.3427C61.3887 79.3427 61.4549 79.3347 61.5108 79.3185C61.5668 79.3014 61.6136 79.2827 61.6512 79.2625C61.6899 79.2413 61.7204 79.2226 61.7428 79.2065C61.7652 79.1893 61.7815 79.1807 61.7917 79.1807C61.8049 79.1807 61.8151 79.1858 61.8222 79.1959L61.8619 79.2443C61.8374 79.2746 61.8049 79.3029 61.7642 79.3291C61.7245 79.3554 61.6797 79.3781 61.6299 79.3972C61.581 79.4154 61.5281 79.43 61.4711 79.4411C61.4152 79.4522 61.3587 79.4578 61.3017 79.4578C61.1979 79.4578 61.1033 79.4401 61.0179 79.4048C60.9324 79.3685 60.8591 79.316 60.7981 79.2474C60.737 79.1787 60.6897 79.095 60.6561 78.996C60.6236 78.8961 60.6073 78.7821 60.6073 78.6539C60.6073 78.5459 60.6226 78.4465 60.6531 78.3557C60.6846 78.2638 60.7294 78.1851 60.7874 78.1195C60.8464 78.0529 60.9181 78.0009 61.0026 77.9636C61.0881 77.9262 61.1847 77.9075 61.2926 77.9075C61.378 77.9075 61.4574 77.9222 61.5307 77.9514C61.6039 77.9807 61.6675 78.0236 61.7215 78.0801C61.7754 78.1356 61.8176 78.2043 61.8481 78.286C61.8797 78.3678 61.8954 78.4616 61.8954 78.5676C61.8954 78.5898 61.8924 78.605 61.8863 78.613C61.8802 78.6211 61.87 78.6251 61.8558 78.6251H60.7508Z" fill="white"/>
<path d="M63.6201 78.1952C63.6903 78.1084 63.7712 78.0387 63.8627 77.9863C63.9553 77.9338 64.0581 77.9075 64.171 77.9075C64.2545 77.9075 64.3277 77.9207 64.3908 77.9469C64.4549 77.9731 64.5078 78.011 64.5495 78.0604C64.5913 78.1099 64.6228 78.1694 64.6442 78.2391C64.6655 78.3087 64.6762 78.3875 64.6762 78.4753V79.4381H64.5297V78.4753C64.5297 78.334 64.4971 78.2234 64.432 78.1437C64.3669 78.063 64.2677 78.0226 64.1344 78.0226C64.0357 78.0226 63.9431 78.0478 63.8566 78.0983C63.7712 78.1477 63.6948 78.2169 63.6277 78.3057V79.4381H63.4812V77.9318H63.5621C63.5875 77.9318 63.6022 77.9444 63.6063 77.9696L63.6201 78.1952Z" fill="white"/>
<path d="M67.371 78.1331C67.3659 78.1382 67.3608 78.1427 67.3557 78.1467C67.3517 78.1498 67.3455 78.1513 67.3374 78.1513C67.3272 78.1513 67.3135 78.1447 67.2962 78.1316C67.2789 78.1175 67.2555 78.1023 67.226 78.0862C67.1965 78.07 67.1593 78.0554 67.1146 78.0423C67.0708 78.0281 67.0174 78.0211 66.9543 78.0211C66.8668 78.0211 66.789 78.0367 66.7208 78.068C66.6536 78.0983 66.5967 78.1422 66.5499 78.1997C66.5031 78.2573 66.4674 78.3269 66.443 78.4086C66.4196 78.4904 66.4079 78.5822 66.4079 78.6842C66.4079 78.7902 66.4201 78.884 66.4445 78.9658C66.47 79.0475 66.5056 79.1167 66.5514 79.1732C66.5972 79.2287 66.6526 79.2711 66.7177 79.3003C66.7829 79.3296 66.8551 79.3443 66.9345 79.3443C67.0077 79.3443 67.0688 79.3357 67.1176 79.3185C67.1675 79.3014 67.2082 79.2827 67.2397 79.2625C67.2723 79.2423 67.2977 79.2236 67.316 79.2065C67.3344 79.1893 67.3496 79.1807 67.3618 79.1807C67.374 79.1807 67.3842 79.1858 67.3923 79.1959L67.4305 79.2443C67.4071 79.2746 67.3776 79.3029 67.342 79.3291C67.3064 79.3554 67.2662 79.3781 67.2214 79.3972C67.1766 79.4164 67.1278 79.431 67.0749 79.4411C67.023 79.4522 66.9686 79.4578 66.9116 79.4578C66.8149 79.4578 66.7264 79.4406 66.646 79.4063C66.5667 79.371 66.498 79.3205 66.44 79.2549C66.383 79.1883 66.3382 79.1071 66.3057 79.0112C66.2741 78.9153 66.2583 78.8063 66.2583 78.6842C66.2583 78.5691 66.2736 78.4642 66.3041 78.3693C66.3347 78.2744 66.3794 78.1927 66.4384 78.124C66.4975 78.0554 66.5692 78.0024 66.6536 77.9651C66.7391 77.9267 66.8368 77.9075 66.9467 77.9075C67.0454 77.9075 67.1329 77.9232 67.2092 77.9545C67.2855 77.9858 67.3522 78.0281 67.4091 78.0816L67.371 78.1331Z" fill="white"/>
<path d="M70.0157 78.5328C70.0157 78.452 70.004 78.3799 69.9806 78.3163C69.9582 78.2517 69.9262 78.1972 69.8845 78.1528C69.8427 78.1084 69.7929 78.0746 69.7349 78.0514C69.6779 78.0271 69.6148 78.015 69.5456 78.015C69.4673 78.015 69.3971 78.0271 69.335 78.0514C69.2729 78.0756 69.219 78.1104 69.1732 78.1558C69.1284 78.2012 69.0923 78.2557 69.0649 78.3193C69.0374 78.3829 69.0191 78.4541 69.0099 78.5328H70.0157ZM69.0023 78.6251V78.6539C69.0023 78.7669 69.0155 78.8664 69.042 78.9521C69.0684 79.0379 69.1061 79.1101 69.1549 79.1686C69.2037 79.2262 69.2628 79.2696 69.3319 79.2988C69.4011 79.3281 69.4785 79.3427 69.5639 79.3427C69.6403 79.3427 69.7064 79.3347 69.7624 79.3185C69.8183 79.3014 69.8651 79.2827 69.9028 79.2625C69.9414 79.2413 69.972 79.2226 69.9943 79.2065C70.0167 79.1893 70.033 79.1807 70.0432 79.1807C70.0564 79.1807 70.0666 79.1858 70.0737 79.1959L70.1134 79.2443C70.089 79.2746 70.0564 79.3029 70.0157 79.3291C69.976 79.3554 69.9313 79.3781 69.8814 79.3972C69.8326 79.4154 69.7796 79.43 69.7227 79.4411C69.6667 79.4522 69.6102 79.4578 69.5533 79.4578C69.4495 79.4578 69.3548 79.4401 69.2694 79.4048C69.1839 79.3685 69.1106 79.316 69.0496 79.2474C68.9885 79.1787 68.9412 79.095 68.9077 78.996C68.8751 78.8961 68.8588 78.7821 68.8588 78.6539C68.8588 78.5459 68.8741 78.4465 68.9046 78.3557C68.9361 78.2638 68.9809 78.1851 69.0389 78.1195C69.0979 78.0529 69.1697 78.0009 69.2541 77.9636C69.3396 77.9262 69.4362 77.9075 69.5441 77.9075C69.6296 77.9075 69.7089 77.9222 69.7822 77.9514C69.8555 77.9807 69.919 78.0236 69.973 78.0801C70.0269 78.1356 70.0691 78.2043 70.0996 78.286C70.1312 78.3678 70.147 78.4616 70.147 78.5676C70.147 78.5898 70.1439 78.605 70.1378 78.613C70.1317 78.6211 70.1215 78.6251 70.1073 78.6251H69.0023Z" fill="white"/>
<path d="M74.8837 78.66L74.4442 77.5775C74.4289 77.5422 74.4142 77.4998 74.3999 77.4503C74.3938 77.4746 74.3872 77.4978 74.3801 77.52C74.3729 77.5412 74.3653 77.5608 74.3572 77.579L73.9176 78.66H74.8837ZM75.3614 79.4381H75.2409C75.2266 79.4381 75.2149 79.4346 75.2058 79.4275C75.1966 79.4194 75.1895 79.4094 75.1844 79.3972L74.931 78.775H73.8703L73.6169 79.3972C73.6129 79.4083 73.6058 79.4179 73.5956 79.426C73.5854 79.4341 73.5732 79.4381 73.5589 79.4381H73.4399L74.3236 77.2959H74.4777L75.3614 79.4381Z" fill="white"/>
<path d="M78.8228 77.9318L78.3161 79.4381H78.2078C78.1905 79.4381 78.1788 79.4275 78.1727 79.4063L77.7575 78.1831C77.7524 78.1679 77.7478 78.1528 77.7438 78.1377C77.7397 78.1225 77.7361 78.1074 77.7331 78.0922C77.728 78.1225 77.7204 78.1528 77.7102 78.1831L77.289 79.4063C77.2829 79.4275 77.2706 79.4381 77.2523 79.4381H77.1485L76.6418 77.9318H76.7517C76.766 77.9318 76.7777 77.9358 76.7868 77.9439C76.796 77.9509 76.8021 77.959 76.8051 77.9681L77.1882 79.1565C77.1943 79.1797 77.1999 79.2024 77.205 79.2247C77.2101 79.2458 77.2142 79.267 77.2172 79.2882C77.2233 79.267 77.2294 79.2458 77.2355 79.2247C77.2416 79.2024 77.2488 79.1797 77.2569 79.1565L77.6629 77.9575C77.67 77.9353 77.6842 77.9242 77.7056 77.9242H77.7651C77.7875 77.9242 77.8023 77.9353 77.8094 77.9575L78.2123 79.1565C78.2195 79.1797 78.2261 79.2019 78.2322 79.2231C78.2383 79.2443 78.2439 79.2655 78.249 79.2867C78.253 79.2655 78.2571 79.2443 78.2612 79.2231C78.2663 79.2019 78.2724 79.1797 78.2795 79.1565L78.6656 77.9681C78.6697 77.957 78.6763 77.9484 78.6855 77.9424C78.6946 77.9353 78.7053 77.9318 78.7175 77.9318H78.8228Z" fill="white"/>
<path d="M81.1756 78.7099C81.0311 78.715 80.9065 78.7266 80.8017 78.7447C80.6979 78.7619 80.6119 78.7856 80.5437 78.8159C80.4766 78.8462 80.4267 78.8825 80.3942 78.9249C80.3616 78.9663 80.3453 79.0137 80.3453 79.0672C80.3453 79.1177 80.3535 79.1616 80.3697 79.1989C80.387 79.2352 80.4094 79.2655 80.4369 79.2898C80.4654 79.313 80.4979 79.3301 80.5346 79.3412C80.5712 79.3523 80.6094 79.3579 80.649 79.3579C80.7081 79.3579 80.762 79.3518 80.8108 79.3397C80.8607 79.3266 80.9065 79.3089 80.9482 79.2867C80.9909 79.2635 81.0306 79.2363 81.0672 79.205C81.1039 79.1737 81.14 79.1399 81.1756 79.1035V78.7099ZM80.2827 78.1452C80.3621 78.0665 80.4455 78.007 80.533 77.9666C80.6205 77.9262 80.7198 77.906 80.8307 77.906C80.9121 77.906 80.9833 77.9191 81.0443 77.9454C81.1054 77.9706 81.1558 78.0075 81.1954 78.0559C81.2361 78.1033 81.2667 78.1614 81.287 78.23C81.3074 78.2976 81.3175 78.3733 81.3175 78.4571V79.4381H81.2595C81.229 79.4381 81.2102 79.424 81.2031 79.3957L81.1817 79.2019C81.14 79.2423 81.0983 79.2786 81.0565 79.3109C81.0158 79.3432 80.9731 79.3705 80.9283 79.3927C80.8836 79.4149 80.8352 79.4321 80.7833 79.4442C80.7315 79.4563 80.6745 79.4623 80.6124 79.4623C80.5605 79.4623 80.5101 79.4548 80.4613 79.4396C80.4125 79.4245 80.3687 79.4013 80.33 79.37C80.2924 79.3387 80.2619 79.2988 80.2385 79.2504C80.2161 79.2009 80.2049 79.1419 80.2049 79.0733C80.2049 79.0097 80.2232 78.9506 80.2598 78.8961C80.2965 78.8416 80.354 78.7942 80.4323 78.7538C80.5107 78.7134 80.6109 78.6812 80.733 78.6569C80.8561 78.6327 81.0036 78.6186 81.1756 78.6145V78.4571C81.1756 78.3178 81.1451 78.2108 81.084 78.1361C81.024 78.0604 80.9344 78.0226 80.8154 78.0226C80.7421 78.0226 80.6796 78.0327 80.6277 78.0529C80.5768 78.0731 80.5335 78.0953 80.4979 78.1195C80.4623 78.1437 80.4333 78.1659 80.4109 78.1861C80.3886 78.2063 80.3697 78.2164 80.3545 78.2164C80.3433 78.2164 80.3341 78.2139 80.327 78.2088C80.3199 78.2038 80.3138 78.1972 80.3087 78.1891L80.2827 78.1452Z" fill="white"/>
<path d="M83.1334 78.2951C83.1568 78.2335 83.1832 78.179 83.2128 78.1316C83.2433 78.0832 83.2779 78.0423 83.3165 78.009C83.3562 77.9757 83.4 77.9504 83.4478 77.9333C83.4966 77.9151 83.5506 77.906 83.6096 77.906C83.6411 77.906 83.6722 77.909 83.7027 77.9151C83.7332 77.9202 83.7602 77.9297 83.7836 77.9439L83.7714 78.0438C83.7663 78.0599 83.7566 78.068 83.7424 78.068C83.7302 78.068 83.7113 78.0645 83.6859 78.0574C83.6615 78.0503 83.6289 78.0468 83.5882 78.0468C83.5292 78.0468 83.4768 78.0559 83.431 78.0741C83.3862 78.0912 83.3455 78.1175 83.3089 78.1528C83.2733 78.1881 83.2418 78.232 83.2143 78.2845C83.1878 78.336 83.1634 78.3955 83.141 78.4631V79.4381H82.9945V77.9318H83.0723C83.0896 77.9318 83.1018 77.9353 83.109 77.9424C83.1161 77.9494 83.1207 77.9615 83.1227 77.9787L83.1334 78.2951Z" fill="white"/>
<path d="M86.2169 78.2557C86.1589 78.1689 86.0943 78.1079 86.0231 78.0726C85.9529 78.0372 85.8725 78.0196 85.782 78.0196C85.6924 78.0196 85.6141 78.0357 85.5469 78.068C85.4798 78.1003 85.4233 78.1462 85.3775 78.2058C85.3327 78.2643 85.2986 78.335 85.2752 78.4177C85.2529 78.4995 85.2417 78.5898 85.2417 78.6887C85.2417 78.9128 85.2829 79.0778 85.3653 79.1838C85.4487 79.2887 85.5688 79.3412 85.7255 79.3412C85.8252 79.3412 85.9163 79.3155 85.9987 79.264C86.0811 79.2125 86.1538 79.1404 86.2169 79.0475V78.2557ZM86.3619 77.2354V79.4381H86.2826C86.2561 79.4381 86.2408 79.425 86.2368 79.3988L86.2215 79.1611C86.1544 79.2519 86.076 79.3241 85.9865 79.3776C85.8969 79.431 85.7962 79.4578 85.6843 79.4578C85.4971 79.4578 85.3515 79.3937 85.2478 79.2655C85.144 79.1373 85.0921 78.9451 85.0921 78.6887C85.0921 78.5787 85.1063 78.4763 85.1348 78.3814C85.1643 78.2855 85.2071 78.2028 85.263 78.1331C85.319 78.0625 85.3877 78.007 85.4691 77.9666C85.5515 77.9262 85.6461 77.906 85.753 77.906C85.8557 77.906 85.9448 77.9247 86.0201 77.962C86.0953 77.9994 86.161 78.0549 86.2169 78.1286V77.2354H86.3619Z" fill="white"/>
<path d="M88.8872 78.118C88.8791 78.1321 88.8674 78.1392 88.8521 78.1392C88.8409 78.1392 88.8267 78.1331 88.8094 78.121C88.7921 78.1079 88.7687 78.0937 88.7392 78.0786C88.7107 78.0625 88.6751 78.0483 88.6323 78.0362C88.5896 78.0231 88.5377 78.0165 88.4766 78.0165C88.4217 78.0165 88.3713 78.0246 88.3255 78.0408C88.2808 78.0559 88.2421 78.0766 88.2096 78.1028C88.178 78.1291 88.1536 78.1599 88.1363 78.1952C88.119 78.2295 88.1103 78.2658 88.1103 78.3042C88.1103 78.3516 88.1226 78.391 88.147 78.4223C88.1714 78.4536 88.2029 78.4803 88.2416 78.5025C88.2813 78.5247 88.3266 78.5439 88.3774 78.56C88.4283 78.5762 88.4797 78.5923 88.5316 78.6085C88.5845 78.6246 88.6364 78.6428 88.6873 78.663C88.7381 78.6822 88.7829 78.7064 88.8216 78.7357C88.8613 78.7649 88.8933 78.8008 88.9177 78.8431C88.9421 78.8855 88.9544 78.937 88.9544 78.9976C88.9544 79.0632 88.9427 79.1242 88.9193 79.1807C88.8959 79.2373 88.8613 79.2862 88.8155 79.3276C88.7707 79.369 88.7153 79.4018 88.6491 79.426C88.583 79.4502 88.5072 79.4623 88.4217 79.4623C88.3149 79.4623 88.2228 79.4457 88.1455 79.4124C88.0681 79.3781 87.9989 79.3337 87.9379 79.2792L87.9715 79.2277C87.9765 79.2196 87.9821 79.2135 87.9883 79.2095C87.9954 79.2055 88.0045 79.2035 88.0157 79.2035C88.0289 79.2035 88.0447 79.2115 88.063 79.2277C88.0824 79.2438 88.1078 79.2615 88.1393 79.2807C88.1709 79.2988 88.2096 79.316 88.2553 79.3321C88.3021 79.3483 88.3596 79.3564 88.4278 79.3564C88.4919 79.3564 88.5484 79.3478 88.5972 79.3306C88.6461 79.3125 88.6868 79.2882 88.7193 79.258C88.7519 79.2277 88.7763 79.1924 88.7926 79.152C88.8099 79.1106 88.8185 79.0672 88.8185 79.0218C88.8185 78.9713 88.8063 78.9294 88.7819 78.8961C88.7575 78.8628 88.7254 78.8346 88.6857 78.8113C88.6461 78.7881 88.6008 78.7685 88.5499 78.7523C88.5001 78.7362 88.4487 78.72 88.3958 78.7039C88.3428 78.6877 88.291 78.67 88.2401 78.6509C88.1902 78.6317 88.1454 78.6075 88.1058 78.5782C88.0661 78.5489 88.034 78.5136 88.0096 78.4722C87.9852 78.4298 87.973 78.3774 87.973 78.3148C87.973 78.2613 87.9847 78.2098 88.0081 78.1604C88.0315 78.1109 88.0646 78.0675 88.1073 78.0302C88.151 77.9928 88.204 77.963 88.266 77.9408C88.3281 77.9186 88.3978 77.9075 88.4751 77.9075C88.5677 77.9075 88.6496 77.9207 88.7208 77.9469C88.7931 77.9731 88.8587 78.0135 88.9177 78.068L88.8872 78.118Z" fill="white"/>
<path d="M2.3227 79.3094L2.31965 79.4381H1.02539V77.2959H2.31965V77.4246H1.18259V78.2906H2.12887V78.4162H1.18259V79.3094H2.3227Z" stroke="white" stroke-width="0.25"/>
<path d="M5.00969 77.9318V79.4381H4.9288C4.90336 79.4381 4.88861 79.425 4.88454 79.3988L4.8708 79.1747C4.80059 79.2615 4.71919 79.3311 4.6266 79.3836C4.53502 79.4361 4.43277 79.4623 4.31982 79.4623C4.23537 79.4623 4.1616 79.4492 4.09852 79.423C4.03543 79.3967 3.98303 79.3589 3.94131 79.3094C3.8996 79.26 3.86805 79.2004 3.84669 79.1308C3.82532 79.0611 3.81463 78.9824 3.81463 78.8946V77.9318H3.96115V78.8946C3.96115 79.0359 3.99371 79.1469 4.05883 79.2277C4.12395 79.3074 4.22316 79.3473 4.35645 79.3473C4.45515 79.3473 4.54723 79.3226 4.6327 79.2731C4.71919 79.2226 4.79601 79.153 4.86317 79.0642V77.9318H5.00969Z" stroke="white" stroke-width="0.25"/>
<path d="M6.83906 78.2951C6.86247 78.2335 6.88892 78.179 6.91843 78.1316C6.94895 78.0832 6.98355 78.0423 7.02221 78.009C7.0619 77.9757 7.10565 77.9504 7.15347 77.9333C7.20231 77.9151 7.25624 77.906 7.31525 77.906C7.3468 77.906 7.37783 77.909 7.40835 77.9151C7.43888 77.9202 7.46584 77.9297 7.48925 77.9439L7.47704 78.0438C7.47195 78.0599 7.46228 78.068 7.44804 78.068C7.43583 78.068 7.417 78.0645 7.39157 78.0574C7.36715 78.0503 7.33459 78.0468 7.29389 78.0468C7.23487 78.0468 7.18247 78.0559 7.13668 78.0741C7.09191 78.0912 7.05121 78.1175 7.01458 78.1528C6.97897 78.1881 6.94743 78.232 6.91995 78.2845C6.8935 78.336 6.86908 78.3955 6.84669 78.4631V79.4381H6.70018V77.9318H6.77801C6.79531 77.9318 6.80752 77.9353 6.81464 77.9424C6.82177 77.9494 6.82634 77.9615 6.82838 77.9787L6.83906 78.2951Z" stroke="white" stroke-width="0.25"/>
<path d="M9.48465 77.9075C9.59352 77.9075 9.69069 77.9262 9.77616 77.9636C9.86265 77.9999 9.9354 78.0519 9.99442 78.1195C10.0534 78.1871 10.0982 78.2689 10.1287 78.3647C10.1603 78.4596 10.176 78.5661 10.176 78.6842C10.176 78.8023 10.1603 78.9087 10.1287 79.0036C10.0982 79.0985 10.0534 79.1797 9.99442 79.2474C9.9354 79.315 9.86265 79.367 9.77616 79.4033C9.69069 79.4396 9.59352 79.4578 9.48465 79.4578C9.37578 79.4578 9.2781 79.4396 9.19161 79.4033C9.10614 79.367 9.03339 79.315 8.97336 79.2474C8.91434 79.1797 8.86906 79.0985 8.83752 79.0036C8.80699 78.9087 8.79173 78.8023 8.79173 78.6842C8.79173 78.5661 8.80699 78.4596 8.83752 78.3647C8.86906 78.2689 8.91434 78.1871 8.97336 78.1195C9.03339 78.0519 9.10614 77.9999 9.19161 77.9636C9.2781 77.9262 9.37578 77.9075 9.48465 77.9075ZM9.48465 79.3443C9.57521 79.3443 9.65406 79.3291 9.72122 79.2988C9.78939 79.2675 9.84586 79.2231 9.89063 79.1656C9.93642 79.1081 9.97051 79.0389 9.99289 78.9582C10.0153 78.8764 10.0265 78.7851 10.0265 78.6842C10.0265 78.5843 10.0153 78.4934 9.99289 78.4117C9.97051 78.3299 9.93642 78.2603 9.89063 78.2028C9.84586 78.1442 9.78939 78.0993 9.72122 78.068C9.65406 78.0367 9.57521 78.0211 9.48465 78.0211C9.39409 78.0211 9.31473 78.0367 9.24656 78.068C9.1794 78.0993 9.12293 78.1442 9.07714 78.2028C9.03237 78.2603 8.99828 78.3299 8.97488 78.4117C8.9525 78.4934 8.94131 78.5843 8.94131 78.6842C8.94131 78.7851 8.9525 78.8764 8.97488 78.9582C8.99828 79.0389 9.03237 79.1081 9.07714 79.1656C9.12293 79.2231 9.1794 79.2675 9.24656 79.2988C9.31473 79.3291 9.39409 79.3443 9.48465 79.3443Z" stroke="white" stroke-width="0.25"/>
<path d="M11.9224 79.1096C11.9519 79.153 11.9825 79.1898 12.014 79.2201C12.0466 79.2494 12.0806 79.2736 12.1163 79.2928C12.1519 79.3109 12.1895 79.3241 12.2292 79.3321C12.2699 79.3402 12.3126 79.3443 12.3574 79.3443C12.4469 79.3443 12.5253 79.3281 12.5925 79.2958C12.6596 79.2635 12.7156 79.2181 12.7603 79.1596C12.8061 79.1 12.8402 79.0294 12.8626 78.9476C12.886 78.8648 12.8977 78.774 12.8977 78.6751C12.8977 78.451 12.856 78.2865 12.7725 78.1816C12.6891 78.0756 12.5696 78.0226 12.4139 78.0226C12.3131 78.0226 12.2221 78.0483 12.1407 78.0998C12.0593 78.1513 11.9865 78.2229 11.9224 78.3148V79.1096ZM11.9163 78.2028C11.9835 78.1119 12.0618 78.0398 12.1514 77.9863C12.2419 77.9328 12.3432 77.906 12.4551 77.906C12.6413 77.906 12.7863 77.9701 12.8901 78.0983C12.9949 78.2265 13.0473 78.4187 13.0473 78.6751C13.0473 78.7851 13.0325 78.8881 13.003 78.9839C12.9745 79.0788 12.9318 79.1616 12.8748 79.2322C12.8188 79.3019 12.7497 79.3569 12.6672 79.3972C12.5858 79.4376 12.4917 79.4578 12.3849 79.4578C12.2821 79.4578 12.1931 79.4391 12.1178 79.4018C12.0425 79.3644 11.9774 79.3094 11.9224 79.2368V79.971H11.7759V77.9318H11.8568C11.8822 77.9318 11.897 77.9444 11.9011 77.9696L11.9163 78.2028Z" stroke="white" stroke-width="0.25"/>
<path d="M15.7159 78.5328C15.7159 78.452 15.7042 78.3799 15.6808 78.3163C15.6585 78.2517 15.6264 78.1972 15.5847 78.1528C15.543 78.1084 15.4931 78.0746 15.4351 78.0514C15.3781 78.0271 15.315 78.015 15.2459 78.015C15.1675 78.015 15.0973 78.0271 15.0352 78.0514C14.9732 78.0756 14.9192 78.1104 14.8735 78.1558C14.8287 78.2012 14.7926 78.2557 14.7651 78.3193C14.7376 78.3829 14.7193 78.4541 14.7101 78.5328H15.7159ZM14.7025 78.6251V78.6539C14.7025 78.7669 14.7157 78.8664 14.7422 78.9521C14.7687 79.0379 14.8063 79.1101 14.8551 79.1686C14.904 79.2262 14.963 79.2696 15.0322 79.2988C15.1014 79.3281 15.1787 79.3427 15.2642 79.3427C15.3405 79.3427 15.4066 79.3347 15.4626 79.3185C15.5185 79.3014 15.5654 79.2827 15.603 79.2625C15.6417 79.2413 15.6722 79.2226 15.6946 79.2065C15.717 79.1893 15.7332 79.1807 15.7434 79.1807C15.7566 79.1807 15.7668 79.1858 15.7739 79.1959L15.8136 79.2443C15.7892 79.2746 15.7566 79.3029 15.7159 79.3291C15.6763 79.3554 15.6315 79.3781 15.5816 79.3972C15.5328 79.4154 15.4799 79.43 15.4229 79.4411C15.3669 79.4522 15.3105 79.4578 15.2535 79.4578C15.1497 79.4578 15.0551 79.4401 14.9696 79.4048C14.8841 79.3685 14.8109 79.316 14.7498 79.2474C14.6888 79.1787 14.6415 79.095 14.6079 78.996C14.5753 78.8961 14.559 78.7821 14.559 78.6539C14.559 78.5459 14.5743 78.4465 14.6048 78.3557C14.6364 78.2638 14.6811 78.1851 14.7391 78.1195C14.7982 78.0529 14.8699 78.0009 14.9543 77.9636C15.0398 77.9262 15.1365 77.9075 15.2443 77.9075C15.3298 77.9075 15.4092 77.9222 15.4824 77.9514C15.5557 77.9807 15.6193 78.0236 15.6732 78.0801C15.7271 78.1356 15.7694 78.2043 15.7999 78.286C15.8314 78.3678 15.8472 78.4616 15.8472 78.5676C15.8472 78.5898 15.8441 78.605 15.838 78.613C15.8319 78.6211 15.8218 78.6251 15.8075 78.6251H14.7025Z" stroke="white" stroke-width="0.25"/>
<path d="M18.283 78.7099C18.1386 78.715 18.0139 78.7266 17.9091 78.7447C17.8053 78.7619 17.7194 78.7856 17.6512 78.8159C17.584 78.8462 17.5342 78.8825 17.5016 78.9249C17.469 78.9663 17.4528 79.0137 17.4528 79.0672C17.4528 79.1177 17.4609 79.1616 17.4772 79.1989C17.4945 79.2352 17.5169 79.2655 17.5443 79.2898C17.5728 79.313 17.6054 79.3301 17.642 79.3412C17.6787 79.3523 17.7168 79.3579 17.7565 79.3579C17.8155 79.3579 17.8694 79.3518 17.9183 79.3397C17.9681 79.3266 18.0139 79.3089 18.0556 79.2867C18.0984 79.2635 18.1381 79.2363 18.1747 79.205C18.2113 79.1737 18.2474 79.1399 18.283 79.1035V78.7099ZM17.3902 78.1452C17.4696 78.0665 17.553 78.007 17.6405 77.9666C17.728 77.9262 17.8272 77.906 17.9381 77.906C18.0195 77.906 18.0907 77.9191 18.1518 77.9454C18.2128 77.9706 18.2632 78.0075 18.3029 78.0559C18.3436 78.1033 18.3741 78.1614 18.3945 78.23C18.4148 78.2976 18.425 78.3733 18.425 78.4571V79.4381H18.367C18.3365 79.4381 18.3176 79.424 18.3105 79.3957L18.2892 79.2019C18.2474 79.2423 18.2057 79.2786 18.164 79.3109C18.1233 79.3432 18.0806 79.3705 18.0358 79.3927C17.991 79.4149 17.9427 79.4321 17.8908 79.4442C17.8389 79.4563 17.7819 79.4623 17.7199 79.4623C17.668 79.4623 17.6176 79.4548 17.5688 79.4396C17.5199 79.4245 17.4762 79.4013 17.4375 79.37C17.3999 79.3387 17.3693 79.2988 17.3459 79.2504C17.3235 79.2009 17.3124 79.1419 17.3124 79.0733C17.3124 79.0097 17.3307 78.9506 17.3673 78.8961C17.4039 78.8416 17.4614 78.7942 17.5398 78.7538C17.6181 78.7134 17.7183 78.6812 17.8404 78.6569C17.9636 78.6327 18.1111 78.6186 18.283 78.6145V78.4571C18.283 78.3178 18.2525 78.2108 18.1915 78.1361C18.1314 78.0604 18.0419 78.0226 17.9229 78.0226C17.8496 78.0226 17.787 78.0327 17.7351 78.0529C17.6842 78.0731 17.641 78.0953 17.6054 78.1195C17.5698 78.1437 17.5408 78.1659 17.5184 78.1861C17.496 78.2063 17.4772 78.2164 17.4619 78.2164C17.4507 78.2164 17.4416 78.2139 17.4345 78.2088C17.4273 78.2038 17.4212 78.1972 17.4161 78.1891L17.3902 78.1452Z" stroke="white" stroke-width="0.25"/>
<path d="M20.2408 78.1952C20.3111 78.1084 20.3919 78.0387 20.4835 77.9863C20.5761 77.9338 20.6789 77.9075 20.7918 77.9075C20.8753 77.9075 20.9485 77.9207 21.0116 77.9469C21.0757 77.9731 21.1286 78.011 21.1703 78.0604C21.212 78.1099 21.2436 78.1694 21.265 78.2391C21.2863 78.3087 21.297 78.3875 21.297 78.4753V79.4381H21.1505V78.4753C21.1505 78.334 21.1179 78.2234 21.0528 78.1437C20.9877 78.063 20.8885 78.0226 20.7552 78.0226C20.6565 78.0226 20.5639 78.0478 20.4774 78.0983C20.3919 78.1477 20.3156 78.2169 20.2485 78.3057V79.4381H20.102V77.9318H20.1828C20.2083 77.9318 20.223 77.9444 20.2271 77.9696L20.2408 78.1952Z" stroke="white" stroke-width="0.25"/>
<path d="M25.1517 77.9318V79.4381H25.0067V77.9318H25.1517ZM25.2142 77.4125C25.2142 77.4306 25.2102 77.4478 25.202 77.464C25.1949 77.4791 25.1852 77.4927 25.173 77.5048C25.1608 77.5169 25.1466 77.5265 25.1303 77.5336C25.114 77.5407 25.0967 77.5442 25.0784 77.5442C25.0601 77.5442 25.0428 77.5407 25.0265 77.5336C25.0102 77.5265 24.996 77.5169 24.9838 77.5048C24.9716 77.4927 24.9619 77.4791 24.9548 77.464C24.9477 77.4478 24.9441 77.4306 24.9441 77.4125C24.9441 77.3943 24.9477 77.3772 24.9548 77.361C24.9619 77.3439 24.9716 77.3292 24.9838 77.3171C24.996 77.305 25.0102 77.2954 25.0265 77.2883C25.0428 77.2813 25.0601 77.2777 25.0784 77.2777C25.0967 77.2777 25.114 77.2813 25.1303 77.2883C25.1466 77.2954 25.1608 77.305 25.173 77.3171C25.1852 77.3292 25.1949 77.3439 25.202 77.361C25.2102 77.3772 25.2142 77.3943 25.2142 77.4125Z" stroke="white" stroke-width="0.25"/>
<path d="M28.6206 78.4662V79.2277C28.5127 79.3034 28.3977 79.3614 28.2756 79.4018C28.1535 79.4422 28.0162 79.4623 27.8635 79.4623C27.6926 79.4623 27.539 79.4366 27.4026 79.3851C27.2663 79.3326 27.1498 79.259 27.0531 79.1641C26.9575 79.0682 26.8837 78.9526 26.8318 78.8174C26.7809 78.6822 26.7555 78.5318 26.7555 78.3663C26.7555 78.2007 26.7804 78.0509 26.8303 77.9166C26.8812 77.7814 26.9534 77.6663 27.047 77.5714C27.1416 77.4756 27.2556 77.4019 27.3889 77.3504C27.5222 77.2979 27.6723 77.2717 27.8391 77.2717C27.9215 77.2717 27.9974 77.2772 28.0665 77.2883C28.1367 77.2994 28.2019 77.3161 28.2619 77.3383C28.3219 77.3595 28.3779 77.3862 28.4298 77.4185C28.4817 77.4498 28.5315 77.4862 28.5794 77.5275L28.5366 77.5942C28.5224 77.6184 28.501 77.6239 28.4725 77.6108C28.4573 77.6048 28.4354 77.5906 28.4069 77.5684C28.3784 77.5462 28.3392 77.523 28.2894 77.4988C28.2395 77.4746 28.1774 77.4529 28.1032 77.4337C28.0299 77.4145 27.9404 77.4049 27.8346 77.4049C27.6941 77.4049 27.5669 77.4271 27.453 77.4715C27.34 77.5159 27.2434 77.5795 27.163 77.6623C27.0836 77.745 27.0221 77.846 26.9783 77.9651C26.9356 78.0842 26.9142 78.2179 26.9142 78.3663C26.9142 78.5166 26.9356 78.6519 26.9783 78.772C27.0221 78.8921 27.0847 78.994 27.1661 79.0778C27.2485 79.1616 27.3482 79.2257 27.4652 79.2701C27.5822 79.3145 27.714 79.3367 27.8605 79.3367C27.9246 79.3367 27.9836 79.3326 28.0375 79.3246C28.0925 79.3165 28.1444 79.3054 28.1932 79.2913C28.2431 79.2761 28.2909 79.258 28.3367 79.2368C28.3835 79.2146 28.4308 79.1898 28.4786 79.1626V78.5858H28.065C28.0538 78.5858 28.0442 78.5822 28.036 78.5752C28.0289 78.5681 28.0253 78.56 28.0253 78.551V78.4662H28.6206Z" stroke="white" stroke-width="0.25"/>
<path d="M31.0976 78.7099C30.9531 78.715 30.8284 78.7266 30.7236 78.7447C30.6199 78.7619 30.5339 78.7856 30.4657 78.8159C30.3986 78.8462 30.3487 78.8825 30.3161 78.9249C30.2836 78.9663 30.2673 79.0137 30.2673 79.0672C30.2673 79.1177 30.2754 79.1616 30.2917 79.1989C30.309 79.2352 30.3314 79.2655 30.3589 79.2898C30.3874 79.313 30.4199 79.3301 30.4566 79.3412C30.4932 79.3523 30.5313 79.3579 30.571 79.3579C30.63 79.3579 30.684 79.3518 30.7328 79.3397C30.7827 79.3266 30.8284 79.3089 30.8702 79.2867C30.9129 79.2635 30.9526 79.2363 30.9892 79.205C31.0258 79.1737 31.062 79.1399 31.0976 79.1035V78.7099ZM30.2047 78.1452C30.2841 78.0665 30.3675 78.007 30.455 77.9666C30.5425 77.9262 30.6417 77.906 30.7526 77.906C30.834 77.906 30.9053 77.9191 30.9663 77.9454C31.0274 77.9706 31.0777 78.0075 31.1174 78.0559C31.1581 78.1033 31.1886 78.1614 31.209 78.23C31.2293 78.2976 31.2395 78.3733 31.2395 78.4571V79.4381H31.1815C31.151 79.4381 31.1322 79.424 31.125 79.3957L31.1037 79.2019C31.062 79.2423 31.0202 79.2786 30.9785 79.3109C30.9378 79.3432 30.8951 79.3705 30.8503 79.3927C30.8056 79.4149 30.7572 79.4321 30.7053 79.4442C30.6534 79.4563 30.5965 79.4623 30.5344 79.4623C30.4825 79.4623 30.4321 79.4548 30.3833 79.4396C30.3344 79.4245 30.2907 79.4013 30.252 79.37C30.2144 79.3387 30.1839 79.2988 30.1605 79.2504C30.1381 79.2009 30.1269 79.1419 30.1269 79.0733C30.1269 79.0097 30.1452 78.9506 30.1818 78.8961C30.2185 78.8416 30.2759 78.7942 30.3543 78.7538C30.4326 78.7134 30.5329 78.6812 30.655 78.6569C30.7781 78.6327 30.9256 78.6186 31.0976 78.6145V78.4571C31.0976 78.3178 31.0671 78.2108 31.006 78.1361C30.946 78.0604 30.8564 78.0226 30.7374 78.0226C30.6641 78.0226 30.6015 78.0327 30.5497 78.0529C30.4988 78.0731 30.4555 78.0953 30.4199 78.1195C30.3843 78.1437 30.3553 78.1659 30.3329 78.1861C30.3105 78.2063 30.2917 78.2164 30.2765 78.2164C30.2653 78.2164 30.2561 78.2139 30.249 78.2088C30.2419 78.2038 30.2358 78.1972 30.2307 78.1891L30.2047 78.1452Z" stroke="white" stroke-width="0.25"/>
<path d="M32.9165 79.4381V77.9318H32.9974C33.0228 77.9318 33.0376 77.9444 33.0416 77.9696L33.0554 78.1876C33.1144 78.1038 33.182 78.0362 33.2584 77.9847C33.3347 77.9333 33.4207 77.9075 33.5163 77.9075C33.6272 77.9075 33.7157 77.9393 33.7819 78.0029C33.849 78.0665 33.8943 78.1548 33.9177 78.2678C33.936 78.2063 33.9615 78.1528 33.994 78.1074C34.0276 78.062 34.0657 78.0246 34.1085 77.9953C34.1512 77.9651 34.1975 77.9429 34.2474 77.9287C34.2982 77.9146 34.3501 77.9075 34.403 77.9075C34.4783 77.9075 34.546 77.9202 34.606 77.9454C34.6661 77.9696 34.7169 78.0059 34.7587 78.0544C34.8004 78.1028 34.8324 78.1624 34.8548 78.233C34.8772 78.3037 34.8884 78.3844 34.8884 78.4753V79.4381H34.7434V78.4753C34.7434 78.3279 34.7113 78.2159 34.6472 78.1392C34.5831 78.0615 34.4916 78.0226 34.3725 78.0226C34.3196 78.0226 34.2687 78.0322 34.2199 78.0514C34.1721 78.0705 34.1293 78.0993 34.0917 78.1377C34.0551 78.175 34.0256 78.2219 34.0032 78.2784C33.9818 78.335 33.9711 78.4006 33.9711 78.4753V79.4381H33.8246V78.4753C33.8246 78.3289 33.7951 78.2169 33.7361 78.1392C33.6781 78.0615 33.5926 78.0226 33.4797 78.0226C33.3973 78.0226 33.3209 78.0468 33.2507 78.0953C33.1805 78.1437 33.1179 78.2108 33.063 78.2966V79.4381H32.9165Z" stroke="white" stroke-width="0.25"/>
<path d="M36.725 77.9318V79.4381H36.5801V77.9318H36.725ZM36.7876 77.4125C36.7876 77.4306 36.7836 77.4478 36.7754 77.464C36.7683 77.4791 36.7586 77.4927 36.7464 77.5048C36.7342 77.5169 36.72 77.5265 36.7037 77.5336C36.6874 77.5407 36.6701 77.5442 36.6518 77.5442C36.6335 77.5442 36.6162 77.5407 36.5999 77.5336C36.5836 77.5265 36.5694 77.5169 36.5572 77.5048C36.5449 77.4927 36.5353 77.4791 36.5282 77.464C36.521 77.4478 36.5175 77.4306 36.5175 77.4125C36.5175 77.3943 36.521 77.3772 36.5282 77.361C36.5353 77.3439 36.5449 77.3292 36.5572 77.3171C36.5694 77.305 36.5836 77.2954 36.5999 77.2883C36.6162 77.2813 36.6335 77.2777 36.6518 77.2777C36.6701 77.2777 36.6874 77.2813 36.7037 77.2883C36.72 77.2954 36.7342 77.305 36.7464 77.3171C36.7586 77.3292 36.7683 77.3439 36.7754 77.361C36.7836 77.3772 36.7876 77.3943 36.7876 77.4125Z" stroke="white" stroke-width="0.25"/>
<path d="M38.5723 78.1952C38.6425 78.1084 38.7234 78.0387 38.815 77.9863C38.9076 77.9338 39.0103 77.9075 39.1233 77.9075C39.2067 77.9075 39.28 77.9207 39.343 77.9469C39.4071 77.9731 39.4601 78.011 39.5018 78.0604C39.5435 78.1099 39.575 78.1694 39.5964 78.2391C39.6178 78.3087 39.6284 78.3875 39.6284 78.4753V79.4381H39.4819V78.4753C39.4819 78.334 39.4494 78.2234 39.3843 78.1437C39.3191 78.063 39.2199 78.0226 39.0866 78.0226C38.9879 78.0226 38.8953 78.0478 38.8089 78.0983C38.7234 78.1477 38.6471 78.2169 38.5799 78.3057V79.4381H38.4334V77.9318H38.5143C38.5397 77.9318 38.5545 77.9444 38.5585 77.9696L38.5723 78.1952Z" stroke="white" stroke-width="0.25"/>
<path d="M41.7982 78.772C41.8633 78.772 41.9213 78.7629 41.9722 78.7447C42.023 78.7256 42.0658 78.6993 42.1004 78.666C42.135 78.6327 42.1614 78.5928 42.1797 78.5464C42.1981 78.5 42.2072 78.4485 42.2072 78.392C42.2072 78.3355 42.1975 78.284 42.1782 78.2376C42.1599 78.1901 42.1329 78.1498 42.0973 78.1165C42.0627 78.0832 42.02 78.0574 41.9691 78.0392C41.9193 78.0211 41.8623 78.012 41.7982 78.012C41.7341 78.012 41.6766 78.0211 41.6257 78.0392C41.5759 78.0574 41.5331 78.0832 41.4975 78.1165C41.4629 78.1498 41.4365 78.1901 41.4181 78.2376C41.3998 78.284 41.3907 78.3355 41.3907 78.392C41.3907 78.4485 41.3998 78.5 41.4181 78.5464C41.4365 78.5928 41.4629 78.6327 41.4975 78.666C41.5331 78.6993 41.5759 78.7256 41.6257 78.7447C41.6766 78.7629 41.7341 78.772 41.7982 78.772ZM42.3659 79.5395C42.3659 79.4921 42.3532 79.4543 42.3278 79.426C42.3034 79.3967 42.2703 79.374 42.2286 79.3579C42.1869 79.3417 42.1385 79.3306 42.0836 79.3246C42.0297 79.3175 41.9727 79.3125 41.9126 79.3094C41.8536 79.3064 41.7941 79.3034 41.7341 79.3003C41.674 79.2973 41.6176 79.2913 41.5647 79.2822C41.526 79.2973 41.4904 79.315 41.4578 79.3352C41.4253 79.3543 41.3973 79.3765 41.3739 79.4018C41.3505 79.427 41.3322 79.4543 41.3189 79.4835C41.3057 79.5138 41.2991 79.5461 41.2991 79.5804C41.2991 79.6248 41.3103 79.6657 41.3327 79.7031C41.3561 79.7414 41.3897 79.7742 41.4334 79.8015C41.4782 79.8297 41.5326 79.8519 41.5967 79.8681C41.6608 79.8842 41.7346 79.8923 41.818 79.8923C41.8954 79.8923 41.9671 79.8837 42.0332 79.8666C42.1004 79.8494 42.1584 79.8252 42.2072 79.7939C42.2571 79.7626 42.2957 79.7253 42.3232 79.6819C42.3517 79.6385 42.3659 79.591 42.3659 79.5395ZM42.5247 77.9984V78.0483C42.5247 78.0705 42.5104 78.0842 42.4819 78.0892L42.2499 78.1059C42.2784 78.1442 42.3003 78.1871 42.3156 78.2345C42.3308 78.282 42.3385 78.3335 42.3385 78.389C42.3385 78.4616 42.3252 78.5277 42.2988 78.5873C42.2733 78.6458 42.2367 78.6963 42.1889 78.7387C42.1421 78.7801 42.0851 78.8124 42.018 78.8356C41.9518 78.8588 41.8786 78.8704 41.7982 78.8704C41.7117 78.8704 41.6328 78.8573 41.5616 78.831C41.5189 78.8553 41.4848 78.884 41.4594 78.9173C41.4349 78.9496 41.4227 78.9819 41.4227 79.0142C41.4227 79.0576 41.438 79.0909 41.4685 79.1141C41.5 79.1373 41.5407 79.1545 41.5906 79.1656C41.6415 79.1757 41.699 79.1823 41.7631 79.1853C41.8282 79.1883 41.8943 79.1918 41.9615 79.1959C42.0286 79.1989 42.0943 79.205 42.1584 79.2141C42.2235 79.2231 42.281 79.2393 42.3308 79.2625C42.3817 79.2847 42.4224 79.3165 42.4529 79.3579C42.4845 79.3982 42.5003 79.4522 42.5003 79.5199C42.5003 79.5824 42.4845 79.6425 42.4529 79.7C42.4214 79.7576 42.3756 79.8085 42.3156 79.8529C42.2566 79.8973 42.1848 79.9327 42.1004 79.9589C42.0159 79.9862 41.9213 79.9998 41.8165 79.9998C41.7097 79.9998 41.616 79.9887 41.5357 79.9665C41.4553 79.9453 41.3876 79.916 41.3327 79.8787C41.2787 79.8423 41.238 79.7999 41.2106 79.7515C41.1831 79.7031 41.1694 79.6516 41.1694 79.5971C41.1694 79.5173 41.1958 79.4492 41.2487 79.3927C41.3016 79.3352 41.3739 79.2903 41.4655 79.258C41.4146 79.2408 41.3734 79.2161 41.3418 79.1838C41.3113 79.1505 41.296 79.1056 41.296 79.049C41.296 79.0278 41.3001 79.0056 41.3083 78.9824C41.3164 78.9592 41.3286 78.9365 41.3449 78.9143C41.3612 78.8911 41.381 78.8694 41.4044 78.8492C41.4278 78.829 41.4543 78.8108 41.4838 78.7947C41.4115 78.7533 41.3551 78.6983 41.3144 78.6297C41.2747 78.561 41.2548 78.4808 41.2548 78.389C41.2548 78.3163 41.2676 78.2507 41.293 78.1922C41.3194 78.1326 41.3566 78.0816 41.4044 78.0392C41.4522 77.9969 41.5092 77.9641 41.5753 77.9408C41.6425 77.9176 41.7168 77.906 41.7982 77.906C41.8653 77.906 41.9269 77.9141 41.9829 77.9302C42.0398 77.9464 42.0907 77.9691 42.1355 77.9984H42.5247Z" stroke="white" stroke-width="0.25"/>
<path d="M47.4368 79.3094L47.4338 79.4381H46.1395V77.2959H47.4338V77.4246H46.2967V78.2906H47.243V78.4162H46.2967V79.3094H47.4368Z" stroke="white" stroke-width="0.25"/>
<path d="M50.1462 79.4381H50.0073C49.993 79.4381 49.9818 79.4341 49.9737 79.426C49.9656 79.4169 49.9589 79.4083 49.9539 79.4003L49.4929 78.7326C49.4889 78.7508 49.4812 78.7685 49.47 78.7856L49.0305 79.4003C49.0234 79.4093 49.0157 79.4179 49.0076 79.426C49.0005 79.4341 48.9908 79.4381 48.9786 79.4381H48.8473L49.3998 78.6675L48.8687 77.9318H49.0076C49.0218 77.9318 49.0325 77.9348 49.0396 77.9408C49.0468 77.9469 49.0529 77.954 49.0579 77.962L49.5036 78.5994C49.5056 78.5913 49.5087 78.5827 49.5128 78.5737C49.5179 78.5646 49.5229 78.5555 49.528 78.5464L49.9447 77.9636C49.9508 77.9545 49.9574 77.9469 49.9645 77.9408C49.9717 77.9348 49.9808 77.9318 49.992 77.9318H50.1248L49.5952 78.6584L50.1462 79.4381Z" stroke="white" stroke-width="0.25"/>
<path d="M52.6088 78.1331C52.6037 78.1382 52.5986 78.1427 52.5936 78.1467C52.5895 78.1498 52.5834 78.1513 52.5752 78.1513C52.5651 78.1513 52.5513 78.1447 52.534 78.1316C52.5167 78.1175 52.4933 78.1023 52.4638 78.0862C52.4343 78.07 52.3972 78.0554 52.3524 78.0423C52.3087 78.0281 52.2552 78.0211 52.1922 78.0211C52.1046 78.0211 52.0268 78.0367 51.9586 78.068C51.8915 78.0983 51.8345 78.1422 51.7877 78.1997C51.7409 78.2573 51.7053 78.3269 51.6809 78.4086C51.6575 78.4904 51.6457 78.5822 51.6457 78.6842C51.6457 78.7902 51.658 78.884 51.6824 78.9658C51.7078 79.0475 51.7434 79.1167 51.7892 79.1732C51.835 79.2287 51.8905 79.2711 51.9556 79.3003C52.0207 79.3296 52.0929 79.3443 52.1723 79.3443C52.2456 79.3443 52.3066 79.3357 52.3555 79.3185C52.4053 79.3014 52.446 79.2827 52.4776 79.2625C52.5101 79.2423 52.5356 79.2236 52.5539 79.2065C52.5722 79.1893 52.5874 79.1807 52.5997 79.1807C52.6119 79.1807 52.622 79.1858 52.6302 79.1959L52.6683 79.2443C52.6449 79.2746 52.6154 79.3029 52.5798 79.3291C52.5442 79.3554 52.504 79.3781 52.4592 79.3972C52.4145 79.4164 52.3656 79.431 52.3127 79.4411C52.2608 79.4522 52.2064 79.4578 52.1494 79.4578C52.0527 79.4578 51.9642 79.4406 51.8839 79.4063C51.8045 79.371 51.7358 79.3205 51.6778 79.2549C51.6208 79.1883 51.5761 79.1071 51.5435 79.0112C51.512 78.9153 51.4962 78.8063 51.4962 78.6842C51.4962 78.5691 51.5114 78.4642 51.542 78.3693C51.5725 78.2744 51.6173 78.1927 51.6763 78.124C51.7353 78.0554 51.807 78.0024 51.8915 77.9651C51.9769 77.9267 52.0746 77.9075 52.1845 77.9075C52.2832 77.9075 52.3707 77.9232 52.447 77.9545C52.5233 77.9858 52.59 78.0281 52.647 78.0816L52.6088 78.1331Z" stroke="white" stroke-width="0.25"/>
<path d="M55.2535 78.5328C55.2535 78.452 55.2418 78.3799 55.2184 78.3163C55.1961 78.2517 55.164 78.1972 55.1223 78.1528C55.0806 78.1084 55.0307 78.0746 54.9727 78.0514C54.9157 78.0271 54.8526 78.015 54.7835 78.015C54.7051 78.015 54.6349 78.0271 54.5728 78.0514C54.5108 78.0756 54.4568 78.1104 54.4111 78.1558C54.3663 78.2012 54.3302 78.2557 54.3027 78.3193C54.2752 78.3829 54.2569 78.4541 54.2477 78.5328H55.2535ZM54.2401 78.6251V78.6539C54.2401 78.7669 54.2533 78.8664 54.2798 78.9521C54.3063 79.0379 54.3439 79.1101 54.3927 79.1686C54.4416 79.2262 54.5006 79.2696 54.5698 79.2988C54.639 79.3281 54.7163 79.3427 54.8018 79.3427C54.8781 79.3427 54.9442 79.3347 55.0002 79.3185C55.0561 79.3014 55.103 79.2827 55.1406 79.2625C55.1793 79.2413 55.2098 79.2226 55.2322 79.2065C55.2546 79.1893 55.2708 79.1807 55.281 79.1807C55.2942 79.1807 55.3044 79.1858 55.3115 79.1959L55.3512 79.2443C55.3268 79.2746 55.2942 79.3029 55.2535 79.3291C55.2139 79.3554 55.1691 79.3781 55.1192 79.3972C55.0704 79.4154 55.0175 79.43 54.9605 79.4411C54.9045 79.4522 54.8481 79.4578 54.7911 79.4578C54.6873 79.4578 54.5927 79.4401 54.5072 79.4048C54.4217 79.3685 54.3485 79.316 54.2874 79.2474C54.2264 79.1787 54.1791 79.095 54.1455 78.996C54.1129 78.8961 54.0966 78.7821 54.0966 78.6539C54.0966 78.5459 54.1119 78.4465 54.1424 78.3557C54.174 78.2638 54.2187 78.1851 54.2767 78.1195C54.3358 78.0529 54.4075 78.0009 54.4919 77.9636C54.5774 77.9262 54.6741 77.9075 54.7819 77.9075C54.8674 77.9075 54.9468 77.9222 55.02 77.9514C55.0933 77.9807 55.1569 78.0236 55.2108 78.0801C55.2647 78.1356 55.307 78.2043 55.3375 78.286C55.369 78.3678 55.3848 78.4616 55.3848 78.5676C55.3848 78.5898 55.3817 78.605 55.3756 78.613C55.3695 78.6211 55.3594 78.6251 55.3451 78.6251H54.2401Z" stroke="white" stroke-width="0.25"/>
<path d="M57.1308 77.2354V79.4381H56.9843V77.2354H57.1308Z" stroke="white" stroke-width="0.25"/>
<path d="M58.995 77.2354V79.4381H58.8484V77.2354H58.995Z" stroke="white" stroke-width="0.25"/>
<path d="M61.7642 78.5328C61.7642 78.452 61.7525 78.3799 61.7291 78.3163C61.7067 78.2517 61.6746 78.1972 61.6329 78.1528C61.5912 78.1084 61.5414 78.0746 61.4834 78.0514C61.4264 78.0271 61.3633 78.015 61.2941 78.015C61.2158 78.015 61.1455 78.0271 61.0835 78.0514C61.0214 78.0756 60.9675 78.1104 60.9217 78.1558C60.8769 78.2012 60.8408 78.2557 60.8133 78.3193C60.7859 78.3829 60.7675 78.4541 60.7584 78.5328H61.7642ZM60.7508 78.6251V78.6539C60.7508 78.7669 60.764 78.8664 60.7904 78.9521C60.8169 79.0379 60.8545 79.1101 60.9034 79.1686C60.9522 79.2262 61.0112 79.2696 61.0804 79.2988C61.1496 79.3281 61.2269 79.3427 61.3124 79.3427C61.3887 79.3427 61.4549 79.3347 61.5108 79.3185C61.5668 79.3014 61.6136 79.2827 61.6512 79.2625C61.6899 79.2413 61.7204 79.2226 61.7428 79.2065C61.7652 79.1893 61.7815 79.1807 61.7917 79.1807C61.8049 79.1807 61.8151 79.1858 61.8222 79.1959L61.8619 79.2443C61.8374 79.2746 61.8049 79.3029 61.7642 79.3291C61.7245 79.3554 61.6797 79.3781 61.6299 79.3972C61.581 79.4154 61.5281 79.43 61.4711 79.4411C61.4152 79.4522 61.3587 79.4578 61.3017 79.4578C61.1979 79.4578 61.1033 79.4401 61.0179 79.4048C60.9324 79.3685 60.8591 79.316 60.7981 79.2474C60.737 79.1787 60.6897 79.095 60.6561 78.996C60.6236 78.8961 60.6073 78.7821 60.6073 78.6539C60.6073 78.5459 60.6226 78.4465 60.6531 78.3557C60.6846 78.2638 60.7294 78.1851 60.7874 78.1195C60.8464 78.0529 60.9181 78.0009 61.0026 77.9636C61.0881 77.9262 61.1847 77.9075 61.2926 77.9075C61.378 77.9075 61.4574 77.9222 61.5307 77.9514C61.6039 77.9807 61.6675 78.0236 61.7215 78.0801C61.7754 78.1356 61.8176 78.2043 61.8481 78.286C61.8797 78.3678 61.8954 78.4616 61.8954 78.5676C61.8954 78.5898 61.8924 78.605 61.8863 78.613C61.8802 78.6211 61.87 78.6251 61.8558 78.6251H60.7508Z" stroke="white" stroke-width="0.25"/>
<path d="M63.6201 78.1952C63.6903 78.1084 63.7712 78.0387 63.8627 77.9863C63.9553 77.9338 64.0581 77.9075 64.171 77.9075C64.2545 77.9075 64.3277 77.9207 64.3908 77.9469C64.4549 77.9731 64.5078 78.011 64.5495 78.0604C64.5913 78.1099 64.6228 78.1694 64.6442 78.2391C64.6655 78.3087 64.6762 78.3875 64.6762 78.4753V79.4381H64.5297V78.4753C64.5297 78.334 64.4971 78.2234 64.432 78.1437C64.3669 78.063 64.2677 78.0226 64.1344 78.0226C64.0357 78.0226 63.9431 78.0478 63.8566 78.0983C63.7712 78.1477 63.6948 78.2169 63.6277 78.3057V79.4381H63.4812V77.9318H63.5621C63.5875 77.9318 63.6022 77.9444 63.6063 77.9696L63.6201 78.1952Z" stroke="white" stroke-width="0.25"/>
<path d="M67.371 78.1331C67.3659 78.1382 67.3608 78.1427 67.3557 78.1467C67.3517 78.1498 67.3455 78.1513 67.3374 78.1513C67.3272 78.1513 67.3135 78.1447 67.2962 78.1316C67.2789 78.1175 67.2555 78.1023 67.226 78.0862C67.1965 78.07 67.1593 78.0554 67.1146 78.0423C67.0708 78.0281 67.0174 78.0211 66.9543 78.0211C66.8668 78.0211 66.789 78.0367 66.7208 78.068C66.6536 78.0983 66.5967 78.1422 66.5499 78.1997C66.5031 78.2573 66.4674 78.3269 66.443 78.4086C66.4196 78.4904 66.4079 78.5822 66.4079 78.6842C66.4079 78.7902 66.4201 78.884 66.4445 78.9658C66.47 79.0475 66.5056 79.1167 66.5514 79.1732C66.5972 79.2287 66.6526 79.2711 66.7177 79.3003C66.7829 79.3296 66.8551 79.3443 66.9345 79.3443C67.0077 79.3443 67.0688 79.3357 67.1176 79.3185C67.1675 79.3014 67.2082 79.2827 67.2397 79.2625C67.2723 79.2423 67.2977 79.2236 67.316 79.2065C67.3344 79.1893 67.3496 79.1807 67.3618 79.1807C67.374 79.1807 67.3842 79.1858 67.3923 79.1959L67.4305 79.2443C67.4071 79.2746 67.3776 79.3029 67.342 79.3291C67.3064 79.3554 67.2662 79.3781 67.2214 79.3972C67.1766 79.4164 67.1278 79.431 67.0749 79.4411C67.023 79.4522 66.9686 79.4578 66.9116 79.4578C66.8149 79.4578 66.7264 79.4406 66.646 79.4063C66.5667 79.371 66.498 79.3205 66.44 79.2549C66.383 79.1883 66.3382 79.1071 66.3057 79.0112C66.2741 78.9153 66.2583 78.8063 66.2583 78.6842C66.2583 78.5691 66.2736 78.4642 66.3041 78.3693C66.3347 78.2744 66.3794 78.1927 66.4384 78.124C66.4975 78.0554 66.5692 78.0024 66.6536 77.9651C66.7391 77.9267 66.8368 77.9075 66.9467 77.9075C67.0454 77.9075 67.1329 77.9232 67.2092 77.9545C67.2855 77.9858 67.3522 78.0281 67.4091 78.0816L67.371 78.1331Z" stroke="white" stroke-width="0.25"/>
<path d="M70.0157 78.5328C70.0157 78.452 70.004 78.3799 69.9806 78.3163C69.9582 78.2517 69.9262 78.1972 69.8845 78.1528C69.8427 78.1084 69.7929 78.0746 69.7349 78.0514C69.6779 78.0271 69.6148 78.015 69.5456 78.015C69.4673 78.015 69.3971 78.0271 69.335 78.0514C69.2729 78.0756 69.219 78.1104 69.1732 78.1558C69.1284 78.2012 69.0923 78.2557 69.0649 78.3193C69.0374 78.3829 69.0191 78.4541 69.0099 78.5328H70.0157ZM69.0023 78.6251V78.6539C69.0023 78.7669 69.0155 78.8664 69.042 78.9521C69.0684 79.0379 69.1061 79.1101 69.1549 79.1686C69.2037 79.2262 69.2628 79.2696 69.3319 79.2988C69.4011 79.3281 69.4785 79.3427 69.5639 79.3427C69.6403 79.3427 69.7064 79.3347 69.7624 79.3185C69.8183 79.3014 69.8651 79.2827 69.9028 79.2625C69.9414 79.2413 69.972 79.2226 69.9943 79.2065C70.0167 79.1893 70.033 79.1807 70.0432 79.1807C70.0564 79.1807 70.0666 79.1858 70.0737 79.1959L70.1134 79.2443C70.089 79.2746 70.0564 79.3029 70.0157 79.3291C69.976 79.3554 69.9313 79.3781 69.8814 79.3972C69.8326 79.4154 69.7796 79.43 69.7227 79.4411C69.6667 79.4522 69.6102 79.4578 69.5533 79.4578C69.4495 79.4578 69.3548 79.4401 69.2694 79.4048C69.1839 79.3685 69.1106 79.316 69.0496 79.2474C68.9885 79.1787 68.9412 79.095 68.9077 78.996C68.8751 78.8961 68.8588 78.7821 68.8588 78.6539C68.8588 78.5459 68.8741 78.4465 68.9046 78.3557C68.9361 78.2638 68.9809 78.1851 69.0389 78.1195C69.0979 78.0529 69.1697 78.0009 69.2541 77.9636C69.3396 77.9262 69.4362 77.9075 69.5441 77.9075C69.6296 77.9075 69.7089 77.9222 69.7822 77.9514C69.8555 77.9807 69.919 78.0236 69.973 78.0801C70.0269 78.1356 70.0691 78.2043 70.0996 78.286C70.1312 78.3678 70.147 78.4616 70.147 78.5676C70.147 78.5898 70.1439 78.605 70.1378 78.613C70.1317 78.6211 70.1215 78.6251 70.1073 78.6251H69.0023Z" stroke="white" stroke-width="0.25"/>
<path d="M74.8837 78.66L74.4442 77.5775C74.4289 77.5422 74.4142 77.4998 74.3999 77.4503C74.3938 77.4746 74.3872 77.4978 74.3801 77.52C74.3729 77.5412 74.3653 77.5608 74.3572 77.579L73.9176 78.66H74.8837ZM75.3614 79.4381H75.2409C75.2266 79.4381 75.2149 79.4346 75.2058 79.4275C75.1966 79.4194 75.1895 79.4094 75.1844 79.3972L74.931 78.775H73.8703L73.6169 79.3972C73.6129 79.4083 73.6058 79.4179 73.5956 79.426C73.5854 79.4341 73.5732 79.4381 73.5589 79.4381H73.4399L74.3236 77.2959H74.4777L75.3614 79.4381Z" stroke="white" stroke-width="0.25"/>
<path d="M78.8228 77.9318L78.3161 79.4381H78.2078C78.1905 79.4381 78.1788 79.4275 78.1727 79.4063L77.7575 78.1831C77.7524 78.1679 77.7478 78.1528 77.7438 78.1377C77.7397 78.1225 77.7361 78.1074 77.7331 78.0922C77.728 78.1225 77.7204 78.1528 77.7102 78.1831L77.289 79.4063C77.2829 79.4275 77.2706 79.4381 77.2523 79.4381H77.1485L76.6418 77.9318H76.7517C76.766 77.9318 76.7777 77.9358 76.7868 77.9439C76.796 77.9509 76.8021 77.959 76.8051 77.9681L77.1882 79.1565C77.1943 79.1797 77.1999 79.2024 77.205 79.2247C77.2101 79.2458 77.2142 79.267 77.2172 79.2882C77.2233 79.267 77.2294 79.2458 77.2355 79.2247C77.2416 79.2024 77.2488 79.1797 77.2569 79.1565L77.6629 77.9575C77.67 77.9353 77.6842 77.9242 77.7056 77.9242H77.7651C77.7875 77.9242 77.8023 77.9353 77.8094 77.9575L78.2123 79.1565C78.2195 79.1797 78.2261 79.2019 78.2322 79.2231C78.2383 79.2443 78.2439 79.2655 78.249 79.2867C78.253 79.2655 78.2571 79.2443 78.2612 79.2231C78.2663 79.2019 78.2724 79.1797 78.2795 79.1565L78.6656 77.9681C78.6697 77.957 78.6763 77.9484 78.6855 77.9424C78.6946 77.9353 78.7053 77.9318 78.7175 77.9318H78.8228Z" stroke="white" stroke-width="0.25"/>
<path d="M81.1756 78.7099C81.0311 78.715 80.9065 78.7266 80.8017 78.7447C80.6979 78.7619 80.6119 78.7856 80.5437 78.8159C80.4766 78.8462 80.4267 78.8825 80.3942 78.9249C80.3616 78.9663 80.3453 79.0137 80.3453 79.0672C80.3453 79.1177 80.3535 79.1616 80.3697 79.1989C80.387 79.2352 80.4094 79.2655 80.4369 79.2898C80.4654 79.313 80.4979 79.3301 80.5346 79.3412C80.5712 79.3523 80.6094 79.3579 80.649 79.3579C80.7081 79.3579 80.762 79.3518 80.8108 79.3397C80.8607 79.3266 80.9065 79.3089 80.9482 79.2867C80.9909 79.2635 81.0306 79.2363 81.0672 79.205C81.1039 79.1737 81.14 79.1399 81.1756 79.1035V78.7099ZM80.2827 78.1452C80.3621 78.0665 80.4455 78.007 80.533 77.9666C80.6205 77.9262 80.7198 77.906 80.8307 77.906C80.9121 77.906 80.9833 77.9191 81.0443 77.9454C81.1054 77.9706 81.1558 78.0075 81.1954 78.0559C81.2361 78.1033 81.2667 78.1614 81.287 78.23C81.3074 78.2976 81.3175 78.3733 81.3175 78.4571V79.4381H81.2595C81.229 79.4381 81.2102 79.424 81.2031 79.3957L81.1817 79.2019C81.14 79.2423 81.0983 79.2786 81.0565 79.3109C81.0158 79.3432 80.9731 79.3705 80.9283 79.3927C80.8836 79.4149 80.8352 79.4321 80.7833 79.4442C80.7315 79.4563 80.6745 79.4623 80.6124 79.4623C80.5605 79.4623 80.5101 79.4548 80.4613 79.4396C80.4125 79.4245 80.3687 79.4013 80.33 79.37C80.2924 79.3387 80.2619 79.2988 80.2385 79.2504C80.2161 79.2009 80.2049 79.1419 80.2049 79.0733C80.2049 79.0097 80.2232 78.9506 80.2598 78.8961C80.2965 78.8416 80.354 78.7942 80.4323 78.7538C80.5107 78.7134 80.6109 78.6812 80.733 78.6569C80.8561 78.6327 81.0036 78.6186 81.1756 78.6145V78.4571C81.1756 78.3178 81.1451 78.2108 81.084 78.1361C81.024 78.0604 80.9344 78.0226 80.8154 78.0226C80.7421 78.0226 80.6796 78.0327 80.6277 78.0529C80.5768 78.0731 80.5335 78.0953 80.4979 78.1195C80.4623 78.1437 80.4333 78.1659 80.4109 78.1861C80.3886 78.2063 80.3697 78.2164 80.3545 78.2164C80.3433 78.2164 80.3341 78.2139 80.327 78.2088C80.3199 78.2038 80.3138 78.1972 80.3087 78.1891L80.2827 78.1452Z" stroke="white" stroke-width="0.25"/>
<path d="M83.1334 78.2951C83.1568 78.2335 83.1832 78.179 83.2128 78.1316C83.2433 78.0832 83.2779 78.0423 83.3165 78.009C83.3562 77.9757 83.4 77.9504 83.4478 77.9333C83.4966 77.9151 83.5506 77.906 83.6096 77.906C83.6411 77.906 83.6722 77.909 83.7027 77.9151C83.7332 77.9202 83.7602 77.9297 83.7836 77.9439L83.7714 78.0438C83.7663 78.0599 83.7566 78.068 83.7424 78.068C83.7302 78.068 83.7113 78.0645 83.6859 78.0574C83.6615 78.0503 83.6289 78.0468 83.5882 78.0468C83.5292 78.0468 83.4768 78.0559 83.431 78.0741C83.3862 78.0912 83.3455 78.1175 83.3089 78.1528C83.2733 78.1881 83.2418 78.232 83.2143 78.2845C83.1878 78.336 83.1634 78.3955 83.141 78.4631V79.4381H82.9945V77.9318H83.0723C83.0896 77.9318 83.1018 77.9353 83.109 77.9424C83.1161 77.9494 83.1207 77.9615 83.1227 77.9787L83.1334 78.2951Z" stroke="white" stroke-width="0.25"/>
<path d="M86.2169 78.2557C86.1589 78.1689 86.0943 78.1079 86.0231 78.0726C85.9529 78.0372 85.8725 78.0196 85.782 78.0196C85.6924 78.0196 85.6141 78.0357 85.5469 78.068C85.4798 78.1003 85.4233 78.1462 85.3775 78.2058C85.3327 78.2643 85.2986 78.335 85.2752 78.4177C85.2529 78.4995 85.2417 78.5898 85.2417 78.6887C85.2417 78.9128 85.2829 79.0778 85.3653 79.1838C85.4487 79.2887 85.5688 79.3412 85.7255 79.3412C85.8252 79.3412 85.9163 79.3155 85.9987 79.264C86.0811 79.2125 86.1538 79.1404 86.2169 79.0475V78.2557ZM86.3619 77.2354V79.4381H86.2826C86.2561 79.4381 86.2408 79.425 86.2368 79.3988L86.2215 79.1611C86.1544 79.2519 86.076 79.3241 85.9865 79.3776C85.8969 79.431 85.7962 79.4578 85.6843 79.4578C85.4971 79.4578 85.3515 79.3937 85.2478 79.2655C85.144 79.1373 85.0921 78.9451 85.0921 78.6887C85.0921 78.5787 85.1063 78.4763 85.1348 78.3814C85.1643 78.2855 85.2071 78.2028 85.263 78.1331C85.319 78.0625 85.3877 78.007 85.4691 77.9666C85.5515 77.9262 85.6461 77.906 85.753 77.906C85.8557 77.906 85.9448 77.9247 86.0201 77.962C86.0953 77.9994 86.161 78.0549 86.2169 78.1286V77.2354H86.3619Z" stroke="white" stroke-width="0.25"/>
<path d="M88.8872 78.118C88.8791 78.1321 88.8674 78.1392 88.8521 78.1392C88.8409 78.1392 88.8267 78.1331 88.8094 78.121C88.7921 78.1079 88.7687 78.0937 88.7392 78.0786C88.7107 78.0625 88.6751 78.0483 88.6323 78.0362C88.5896 78.0231 88.5377 78.0165 88.4766 78.0165C88.4217 78.0165 88.3713 78.0246 88.3255 78.0408C88.2808 78.0559 88.2421 78.0766 88.2096 78.1028C88.178 78.1291 88.1536 78.1599 88.1363 78.1952C88.119 78.2295 88.1103 78.2658 88.1103 78.3042C88.1103 78.3516 88.1226 78.391 88.147 78.4223C88.1714 78.4536 88.2029 78.4803 88.2416 78.5025C88.2813 78.5247 88.3266 78.5439 88.3774 78.56C88.4283 78.5762 88.4797 78.5923 88.5316 78.6085C88.5845 78.6246 88.6364 78.6428 88.6873 78.663C88.7381 78.6822 88.7829 78.7064 88.8216 78.7357C88.8613 78.7649 88.8933 78.8008 88.9177 78.8431C88.9421 78.8855 88.9544 78.937 88.9544 78.9976C88.9544 79.0632 88.9427 79.1242 88.9193 79.1807C88.8959 79.2373 88.8613 79.2862 88.8155 79.3276C88.7707 79.369 88.7153 79.4018 88.6491 79.426C88.583 79.4502 88.5072 79.4623 88.4217 79.4623C88.3149 79.4623 88.2228 79.4457 88.1455 79.4124C88.0681 79.3781 87.9989 79.3337 87.9379 79.2792L87.9715 79.2277C87.9765 79.2196 87.9821 79.2135 87.9883 79.2095C87.9954 79.2055 88.0045 79.2035 88.0157 79.2035C88.0289 79.2035 88.0447 79.2115 88.063 79.2277C88.0824 79.2438 88.1078 79.2615 88.1393 79.2807C88.1709 79.2988 88.2096 79.316 88.2553 79.3321C88.3021 79.3483 88.3596 79.3564 88.4278 79.3564C88.4919 79.3564 88.5484 79.3478 88.5972 79.3306C88.6461 79.3125 88.6868 79.2882 88.7193 79.258C88.7519 79.2277 88.7763 79.1924 88.7926 79.152C88.8099 79.1106 88.8185 79.0672 88.8185 79.0218C88.8185 78.9713 88.8063 78.9294 88.7819 78.8961C88.7575 78.8628 88.7254 78.8346 88.6857 78.8113C88.6461 78.7881 88.6008 78.7685 88.5499 78.7523C88.5001 78.7362 88.4487 78.72 88.3958 78.7039C88.3428 78.6877 88.291 78.67 88.2401 78.6509C88.1902 78.6317 88.1454 78.6075 88.1058 78.5782C88.0661 78.5489 88.034 78.5136 88.0096 78.4722C87.9852 78.4298 87.973 78.3774 87.973 78.3148C87.973 78.2613 87.9847 78.2098 88.0081 78.1604C88.0315 78.1109 88.0646 78.0675 88.1073 78.0302C88.151 77.9928 88.204 77.963 88.266 77.9408C88.3281 77.9186 88.3978 77.9075 88.4751 77.9075C88.5677 77.9075 88.6496 77.9207 88.7208 77.9469C88.7931 77.9731 88.8587 78.0135 88.9177 78.068L88.8872 78.118Z" stroke="white" stroke-width="0.25"/>
<path d="M43.6854 69.6312L42.2957 65.864C42.2273 65.6969 42.1562 65.4985 42.0825 65.2687C42.0088 65.039 41.9351 64.791 41.8615 64.5247C41.793 64.791 41.722 65.0416 41.6483 65.2765C41.5746 65.5063 41.5035 65.7073 41.4351 65.8796L40.0533 69.6312H43.6854ZM47.4359 73.9075H45.7936C45.6093 73.9075 45.4593 73.8631 45.3435 73.7743C45.2277 73.6803 45.1408 73.5655 45.0829 73.4297L44.2302 71.1193H39.5006L38.6479 73.4297C38.6058 73.5498 38.5242 73.6594 38.4031 73.7587C38.282 73.8579 38.132 73.9075 37.953 73.9075H36.2949L40.7876 62.5823H42.9511L47.4359 73.9075Z" fill="white"/>
<path d="M59.8728 65.8718L57.2987 73.9075H55.7354C55.5564 73.9075 55.4327 73.7926 55.3643 73.5629L53.9114 68.9185C53.864 68.7618 53.8193 68.6078 53.7772 68.4564C53.7403 68.2997 53.7088 68.1431 53.6824 67.9864C53.6509 68.1431 53.614 68.3023 53.5719 68.4642C53.5351 68.6208 53.493 68.7775 53.4456 68.9341L51.9691 73.5629C51.9059 73.7926 51.7664 73.9075 51.5506 73.9075H50.0504L47.4843 65.8718H49.0397C49.1818 65.8718 49.3029 65.9057 49.4029 65.9736C49.5029 66.0415 49.5687 66.1276 49.6003 66.2321L50.761 70.524C50.8189 70.759 50.8689 70.9887 50.911 71.2132C50.9584 71.4378 50.9979 71.6623 51.0295 71.8868C51.0874 71.6623 51.1479 71.4378 51.2111 71.2132C51.2795 70.9887 51.3506 70.759 51.4242 70.524L52.7665 66.2164C52.7981 66.112 52.8587 66.0258 52.9481 65.9579C53.0429 65.8901 53.1561 65.8561 53.2877 65.8561H54.1483C54.2852 65.8561 54.401 65.8901 54.4957 65.9579C54.5957 66.0258 54.6615 66.112 54.6931 66.2164L55.9959 70.524C56.0643 70.759 56.1275 70.9913 56.1854 71.2211C56.2486 71.4456 56.3091 71.6701 56.367 71.8946C56.4354 71.4508 56.5328 70.9939 56.6592 70.524L57.8514 66.2321C57.8883 66.1276 57.9541 66.0415 58.0488 65.9736C58.1436 65.9057 58.2567 65.8718 58.3883 65.8718H59.8728Z" fill="white"/>
<path d="M65.1534 70.477C64.5902 70.5031 64.1165 70.5527 63.7322 70.6258C63.3479 70.6937 63.04 70.7825 62.8084 70.8921C62.5768 71.0018 62.411 71.1297 62.3109 71.2759C62.2109 71.4221 62.1609 71.5813 62.1609 71.7537C62.1609 72.093 62.2609 72.3358 62.461 72.482C62.6663 72.6282 62.9321 72.7013 63.2584 72.7013C63.6585 72.7013 64.0033 72.6308 64.2928 72.4899C64.5876 72.3437 64.8744 72.1244 65.1534 71.832V70.477ZM60.6844 66.9918C61.6161 66.1459 62.7373 65.723 64.048 65.723C64.5218 65.723 64.9455 65.8013 65.3192 65.9579C65.693 66.1094 66.0088 66.3234 66.2667 66.6002C66.5247 66.8717 66.7194 67.198 66.851 67.5792C66.9879 67.9603 67.0563 68.378 67.0563 68.8323V73.9075H66.172C65.9878 73.9075 65.8456 73.8814 65.7456 73.8291C65.6456 73.7717 65.5666 73.6594 65.5087 73.4924L65.335 72.9128C65.1297 73.0955 64.9297 73.2574 64.735 73.3984C64.5402 73.5341 64.3375 73.649 64.127 73.743C63.9164 73.837 63.6901 73.9075 63.4479 73.9545C63.2111 74.0067 62.9479 74.0328 62.6584 74.0328C62.3162 74.0328 62.0004 73.9884 61.7109 73.8996C61.4214 73.8056 61.1713 73.6673 60.9608 73.4845C60.7502 73.3018 60.587 73.0747 60.4712 72.8031C60.3554 72.5316 60.2975 72.2157 60.2975 71.8555C60.2975 71.6518 60.3317 71.4508 60.4002 71.2524C60.4686 71.0488 60.5791 70.8556 60.7318 70.6728C60.8897 70.4901 61.0924 70.3178 61.3398 70.1559C61.5872 69.9941 61.8898 69.8531 62.2478 69.733C62.611 69.6129 63.0321 69.5163 63.5111 69.4432C63.9901 69.3649 64.5376 69.3179 65.1534 69.3022V68.8323C65.1534 68.2945 65.0376 67.8977 64.806 67.6418C64.5744 67.3808 64.2402 67.2502 63.8032 67.2502C63.4874 67.2502 63.2242 67.2868 63.0137 67.3599C62.8084 67.433 62.6268 67.5165 62.4689 67.6105C62.3109 67.6993 62.1662 67.7802 62.0346 67.8533C61.9083 67.9264 61.7661 67.9629 61.6082 67.9629C61.4714 67.9629 61.3556 67.929 61.2608 67.8611C61.1661 67.788 61.0897 67.7045 61.0318 67.6105L60.6844 66.9918Z" fill="white"/>
<path d="M70.7328 67.2659C70.9855 66.7855 71.2855 66.4096 71.6329 66.1381C71.9803 65.8613 72.3909 65.723 72.8647 65.723C73.2384 65.723 73.5384 65.8039 73.7648 65.9658L73.6384 67.4147C73.6121 67.5087 73.5727 67.5766 73.52 67.6183C73.4726 67.6549 73.4068 67.6732 73.3226 67.6732C73.2437 67.6732 73.1252 67.6601 72.9673 67.634C72.8147 67.6079 72.6646 67.5948 72.5172 67.5948C72.3014 67.5948 72.1093 67.6262 71.9409 67.6888C71.7724 67.7515 71.6198 67.8428 71.4829 67.9629C71.3513 68.0778 71.2329 68.2188 71.1276 68.3859C71.0276 68.553 70.9328 68.7435 70.8433 68.9576V73.9075H68.8931V65.8718H70.038C70.238 65.8718 70.3775 65.9083 70.4564 65.9814C70.5354 66.0493 70.588 66.1746 70.6144 66.3574L70.7328 67.2659Z" fill="white"/>
<path d="M79.6531 67.9238C79.432 67.6575 79.1899 67.4695 78.9267 67.3599C78.6687 67.2502 78.3897 67.1954 78.0897 67.1954C77.7949 67.1954 77.5291 67.2502 77.2922 67.3599C77.0554 67.4695 76.8527 67.6366 76.6843 67.8611C76.5158 68.0804 76.3868 68.3624 76.2974 68.707C76.2079 69.0464 76.1631 69.4484 76.1631 69.9131C76.1631 70.383 76.2 70.7825 76.2737 71.1114C76.3526 71.4351 76.4632 71.7014 76.6053 71.9103C76.7474 72.1139 76.9211 72.2627 77.1264 72.3567C77.3317 72.4455 77.5607 72.4899 77.8134 72.4899C78.2187 72.4899 78.5635 72.4063 78.8477 72.2392C79.132 72.0722 79.4004 71.8346 79.6531 71.5265V67.9238ZM81.6033 62.269V73.9075H80.4111C80.1531 73.9075 79.99 73.79 79.9215 73.555L79.7557 72.7796C79.4294 73.1504 79.053 73.4506 78.6266 73.6803C78.2055 73.9101 77.7133 74.0249 77.1501 74.0249C76.7079 74.0249 76.3026 73.9336 75.9342 73.7508C75.5657 73.5681 75.2472 73.3044 74.9788 72.9598C74.7156 72.61 74.5103 72.1792 74.3629 71.6675C74.2208 71.1558 74.1497 70.571 74.1497 69.9131C74.1497 69.3179 74.2313 68.7644 74.3945 68.2527C74.5577 67.741 74.7919 67.2972 75.0972 66.9213C75.4025 66.5453 75.7683 66.2529 76.1947 66.0441C76.6211 65.83 77.1001 65.723 77.6318 65.723C78.0844 65.723 78.4713 65.7935 78.7924 65.9344C79.1135 66.0754 79.4004 66.266 79.6531 66.5062V62.269H81.6033Z" fill="white"/>
<path d="M88.4708 67.4382C88.4182 67.5217 88.3629 67.5818 88.305 67.6183C88.2471 67.6497 88.1734 67.6653 88.0839 67.6653C87.9892 67.6653 87.8865 67.6392 87.776 67.587C87.6707 67.5348 87.547 67.4774 87.4049 67.4147C87.2628 67.3468 87.0996 67.2868 86.9154 67.2346C86.7364 67.1823 86.5232 67.1562 86.2758 67.1562C85.8915 67.1562 85.5889 67.2372 85.3678 67.399C85.152 67.5609 85.044 67.7724 85.044 68.0334C85.044 68.2057 85.0993 68.3519 85.2099 68.472C85.3257 68.5869 85.4757 68.6887 85.6599 68.7775C85.8494 68.8662 86.0626 68.9472 86.2995 69.0203C86.5364 69.0881 86.7759 69.1639 87.018 69.2474C87.2654 69.3309 87.5075 69.4275 87.7444 69.5372C87.9813 69.6416 88.1918 69.7774 88.3761 69.9444C88.5656 70.1063 88.7156 70.3021 88.8261 70.5319C88.9419 70.7616 88.9998 71.0383 88.9998 71.362C88.9998 71.7484 88.9288 72.1061 88.7867 72.435C88.6498 72.7588 88.4445 73.0407 88.1708 73.2809C87.8971 73.5159 87.5575 73.7012 87.1522 73.837C86.7522 73.9675 86.289 74.0328 85.7626 74.0328C85.4836 74.0328 85.2099 74.0067 84.9414 73.9545C84.6782 73.9075 84.4229 73.8396 84.1755 73.7508C83.9334 73.6621 83.707 73.5576 83.4965 73.4375C83.2912 73.3174 83.1096 73.1869 82.9517 73.0459L83.4017 72.3097C83.4596 72.221 83.5281 72.1531 83.607 72.1061C83.686 72.0591 83.786 72.0356 83.9071 72.0356C84.0281 72.0356 84.1413 72.0695 84.2466 72.1374C84.3571 72.2053 84.4834 72.2784 84.6256 72.3567C84.7677 72.435 84.9335 72.5081 85.123 72.576C85.3178 72.6439 85.5625 72.6778 85.8573 72.6778C86.0889 72.6778 86.2863 72.6517 86.4495 72.5995C86.618 72.5421 86.7548 72.469 86.8601 72.3802C86.9706 72.2915 87.0496 72.1896 87.097 72.0748C87.1496 71.9547 87.1759 71.832 87.1759 71.7067C87.1759 71.5187 87.118 71.3647 87.0022 71.2446C86.8917 71.1245 86.7416 71.02 86.5522 70.9313C86.3679 70.8425 86.1547 70.7642 85.9126 70.6963C85.6757 70.6232 85.4309 70.5449 85.1783 70.4614C84.9309 70.3778 84.6861 70.2812 84.444 70.1716C84.2071 70.0567 83.9939 69.9131 83.8044 69.7408C83.6202 69.5685 83.4702 69.357 83.3544 69.1064C83.2438 68.8558 83.1885 68.553 83.1885 68.1979C83.1885 67.869 83.2543 67.5557 83.3859 67.2581C83.5175 66.9604 83.7097 66.702 83.9623 66.4827C84.2203 66.2582 84.5387 66.0806 84.9177 65.9501C85.302 65.8143 85.7441 65.7465 86.2442 65.7465C86.8022 65.7465 87.3101 65.8378 87.7681 66.0206C88.2261 66.2033 88.6077 66.4435 88.913 66.7411L88.4708 67.4382Z" fill="white"/>
<path d="M3.13186 64.2583V67.399H7.12714V69.0202H3.13186V72.2235H8.20097V73.9074H1V62.5823H8.20097V64.2583H3.13186Z" fill="white"/>
<path d="M11.7812 65.8717V73.9074H9.82306V65.8717H11.7812ZM12.0497 63.5299C12.0497 63.697 12.0155 63.8537 11.947 63.9999C11.8786 64.1461 11.7865 64.274 11.6707 64.3836C11.5601 64.4933 11.4285 64.582 11.2759 64.6499C11.1232 64.7126 10.9601 64.7439 10.7863 64.7439C10.6179 64.7439 10.4574 64.7126 10.3047 64.6499C10.1573 64.582 10.0283 64.4933 9.91781 64.3836C9.80727 64.274 9.71778 64.1461 9.64935 63.9999C9.58618 63.8537 9.5546 63.697 9.5546 63.5299C9.5546 63.3576 9.58618 63.1958 9.64935 63.0444C9.71778 62.8929 9.80727 62.7624 9.91781 62.6528C10.0283 62.5431 10.1573 62.457 10.3047 62.3943C10.4574 62.3264 10.6179 62.2925 10.7863 62.2925C10.9601 62.2925 11.1232 62.3264 11.2759 62.3943C11.4285 62.457 11.5601 62.5431 11.6707 62.6528C11.7865 62.7624 11.8786 62.8929 11.947 63.0444C12.0155 63.1958 12.0497 63.3576 12.0497 63.5299Z" fill="white"/>
<path d="M23.3658 68.2292V72.8109C22.7868 73.2338 22.1683 73.5445 21.5103 73.7429C20.8576 73.9361 20.1575 74.0327 19.41 74.0327C18.4783 74.0327 17.6335 73.8891 16.8755 73.602C16.1228 73.3148 15.4779 72.9153 14.941 72.4037C14.4094 71.892 13.9988 71.2811 13.7093 70.571C13.4198 69.8608 13.275 69.0855 13.275 68.2448C13.275 67.3938 13.4145 66.6132 13.6935 65.9031C13.9725 65.1929 14.3673 64.582 14.8778 64.0704C15.3937 63.5587 16.0175 63.1618 16.7491 62.8799C17.4808 62.5979 18.302 62.457 19.2126 62.457C19.6759 62.457 20.1075 62.4935 20.5075 62.5666C20.9129 62.6397 21.2866 62.7415 21.6288 62.8721C21.9762 62.9974 22.292 63.1514 22.5762 63.3341C22.8605 63.5169 23.1211 63.7179 23.3579 63.9372L22.75 64.8927C22.6552 65.0441 22.5315 65.1381 22.3789 65.1747C22.2262 65.206 22.0604 65.1668 21.8814 65.0572C21.7077 64.958 21.534 64.8588 21.3603 64.7596C21.1866 64.6604 20.9918 64.5742 20.776 64.5011C20.5655 64.428 20.3259 64.368 20.0575 64.321C19.7943 64.274 19.489 64.2505 19.1416 64.2505C18.5783 64.2505 18.0677 64.3445 17.6098 64.5324C17.1571 64.7204 16.7702 64.9893 16.4491 65.3391C16.128 65.689 15.8806 66.1093 15.7069 66.6001C15.5332 67.0909 15.4463 67.6392 15.4463 68.2448C15.4463 68.8923 15.5385 69.4719 15.7227 69.9835C15.9122 70.49 16.1754 70.9208 16.5123 71.2758C16.8544 71.6257 17.265 71.8946 17.744 72.0825C18.223 72.2653 18.7573 72.3567 19.3469 72.3567C19.768 72.3567 20.1443 72.3123 20.476 72.2235C20.8076 72.1348 21.1313 72.0147 21.4471 71.8632V69.8112H20.0101C19.8733 69.8112 19.7653 69.7747 19.6864 69.7016C19.6127 69.6233 19.5758 69.5293 19.5758 69.4196V68.2292H23.3658Z" fill="white"/>
<path d="M27.5441 64.2583V67.399H31.5393V69.0202H27.5441V72.2235H32.6132V73.9074H25.4122V62.5823H32.6132V64.2583H27.5441Z" fill="white"/>
<path d="M44.988 0L46.7564 4.36808L51.4909 4.68652L47.8493 7.70457L49.007 12.2695L44.988 9.76664L40.9689 12.2695L42.1267 7.70457L38.485 4.68652L43.2196 4.36808L44.988 0Z" fill="white"/>
<path d="M63.6285 12.5557L64.9443 15.8057L68.467 16.0427L65.7575 18.2882L66.6189 21.6847L63.6285 19.8225L60.6382 21.6847L61.4996 18.2882L58.79 16.0427L62.3128 15.8057L63.6285 12.5557Z" fill="white"/>
<path d="M26.3473 12.5557L27.663 15.8057L31.1858 16.0427L28.4762 18.2882L29.3376 21.6847L26.3473 19.8225L23.3569 21.6847L24.2183 18.2882L21.5088 16.0427L25.0315 15.8057L26.3473 12.5557Z" fill="white"/>
<path d="M17.6363 24.021L18.9521 27.2711L22.4748 27.508L19.7653 29.7536L20.6267 33.1501L17.6363 31.2878L14.646 33.1501L15.5074 29.7536L12.7978 27.508L16.3206 27.2711L17.6363 24.021Z" fill="white"/>
<path d="M72.3375 24.021L73.6533 27.2711L77.176 27.508L74.4664 29.7536L75.3279 33.1501L72.3375 31.2878L69.3471 33.1501L70.2086 29.7536L67.499 27.508L71.0217 27.2711L72.3375 24.021Z" fill="white"/>
<path d="M75.7164 39.4429L77.0322 42.6929L80.5549 42.9299L77.8453 45.1754L78.7068 48.5719L75.7164 46.7097L72.726 48.5719L73.5875 45.1754L70.8779 42.9299L74.4006 42.6929L75.7164 39.4429Z" fill="white"/>
<path d="M14.2594 39.4429L15.5751 42.6929L19.0979 42.9299L16.3883 45.1754L17.2497 48.5719L14.2594 46.7097L11.269 48.5719L12.1304 45.1754L9.42087 42.9299L12.9436 42.6929L14.2594 39.4429Z" fill="white"/>
</g>
<defs>
<filter id="filter0_d_465_3608" x="0.900391" y="0" width="96.1797" height="94.1248" filterUnits="userSpaceOnUse" color-interpolation-filters="sRGB">
<feFlood flood-opacity="0" result="BackgroundImageFix"/>
<feColorMatrix in="SourceAlpha" type="matrix" values="0 0 0 0 0 0 0 0 0 0 0 0 0 0 0 0 0 0 127 0" result="hardAlpha"/>
<feOffset dx="4" dy="10"/>
<feGaussianBlur stdDeviation="2"/>
<feComposite in2="hardAlpha" operator="out"/>
<feColorMatrix type="matrix" values="0 0 0 0 0 0 0 0 0 0 0 0 0 0 0 0 0 0 0.25 0"/>
<feBlend mode="normal" in2="BackgroundImageFix" result="effect1_dropShadow_465_3608"/>
<feBlend mode="normal" in="SourceGraphic" in2="effect1_dropShadow_465_3608" result="shape"/>
</filter>
</defs>
</svg>
