<svg width="144" height="130" viewBox="0 0 144 130" fill="none" xmlns="http://www.w3.org/2000/svg">    <path d="M108.099 28.6956L72.0745 0L36.0249 28.6956L6.10352e-05 0V68.9192H144V0L108.099 28.6956Z" fill="white"/>    <path d="M136.981 115.712H119.202C118.859 115.685 118.538 115.53 118.305 115.276C118.071 115.023 117.941 114.692 117.941 114.347C117.941 114.003 118.071 113.671 118.305 113.418C118.538 113.165 118.859 113.009 119.202 112.982H140.893V107.384H106.089C104.227 107.384 102.442 108.123 101.126 109.44C99.8095 110.756 99.07 112.541 99.07 114.403C99.07 116.264 99.8095 118.05 101.126 119.366C102.442 120.682 104.227 121.422 106.089 121.422H124.972C125.335 121.422 125.683 121.566 125.94 121.823C126.197 122.08 126.341 122.428 126.341 122.791C126.341 123.154 126.197 123.503 125.94 123.76C125.683 124.017 125.335 124.161 124.972 124.161H99.8489V129.75H136.981C138.842 129.75 140.628 129.011 141.944 127.694C143.26 126.378 144 124.593 144 122.731C144 120.87 143.26 119.084 141.944 117.768C140.628 116.452 138.842 115.712 136.981 115.712Z" fill="white"/>    <path d="M86.3588 107.384H50.408V129.75H86.6755C88.1926 129.756 89.6949 129.452 91.091 128.859C92.4871 128.265 93.748 127.394 94.7968 126.298C95.8457 125.201 96.6606 123.903 97.1922 122.483C97.7237 121.062 97.9607 119.547 97.8887 118.032C97.6981 115.118 96.3954 112.388 94.2497 110.406C92.104 108.424 89.2793 107.342 86.3588 107.384ZM74.6063 124.161H69.1709V112.982H74.6063C76.0887 112.982 77.5105 113.571 78.5587 114.619C79.6069 115.667 80.1958 117.089 80.1958 118.571C80.1958 120.054 79.6069 121.475 78.5587 122.524C77.5105 123.572 76.0887 124.161 74.6063 124.161Z" fill="white"/>    <path d="M29.6849 129.75H48.4478L39.2033 107.383H9.24435L-0.00012207 129.75H14.928L16.4174 126.146H28.187L29.6849 129.75ZM18.0523 122.192L22.3321 111.92L26.612 122.192H18.0523Z" fill="white"/>    <path d="M43.2505 81.4241V101.279H59.914V81.4241H43.2505Z" fill="white"/>    <path d="M71.7978 81.4241C69.2124 81.399 66.7154 82.3644 64.8192 84.1221C62.923 85.8798 61.7714 88.2966 61.6007 90.8765C61.537 92.2192 61.7464 93.5608 62.2164 94.8201C62.6864 96.0794 63.4071 97.2302 64.3349 98.2028C65.2627 99.1753 66.3783 99.9494 67.6141 100.478C68.8499 101.007 70.1801 101.279 71.5243 101.279H99.9349V96.317H85.0951C83.7792 96.317 82.5171 95.7943 81.5866 94.8637C80.6561 93.9332 80.1333 92.6712 80.1333 91.3552C80.1333 90.0393 80.6561 88.7772 81.5866 87.8467C82.5171 86.9162 83.7792 86.3934 85.0951 86.3934H99.9653V81.4241H71.7978Z" fill="white"/>    <path d="M127.213 81.4241V88.825H119.121V81.4241H102.465V101.279H119.121V93.8855H127.213V101.279H143.869V81.4241H127.213Z" fill="white"/>    <path d="M41.5636 88.8707C41.5636 86.8957 40.779 85.0017 39.3826 83.6052C37.9861 82.2087 36.092 81.4242 34.1171 81.4242H0.0456543V101.279H16.7091V96.3172H19.0722L23.2133 101.279H39.5044L35.2645 96.1956C37.0164 95.9287 38.6149 95.0432 39.7704 93.6995C40.9259 92.3559 41.562 90.6428 41.5636 88.8707ZM23.3957 91.3554H16.7091V86.3936H23.3957C23.733 86.3749 24.0706 86.4252 24.3879 86.5415C24.7051 86.6577 24.9953 86.8374 25.2407 87.0696C25.4862 87.3018 25.6816 87.5816 25.8152 87.892C25.9488 88.2023 26.0177 88.5366 26.0177 88.8745C26.0177 89.2123 25.9488 89.5466 25.8152 89.857C25.6816 90.1673 25.4862 90.4471 25.2407 90.6793C24.9953 90.9115 24.7051 91.0912 24.3879 91.2075C24.0706 91.3237 23.733 91.374 23.3957 91.3554Z" fill="white"/></svg>