<svg xmlns:xlink="http://www.w3.org/1999/xlink"  width="84" height="41" viewBox="0 0 84 41" fill="none" xmlns="http://www.w3.org/2000/svg">
<path fill-rule="evenodd" clip-rule="evenodd" d="M11.4794 0.725505L0 28.2923H9.99324L16.4505 12.751L11.4794 0.725505ZM51.1963 0.725505L39.7166 28.2923H49.7102L56.1671 12.751L51.1963 0.725505ZM31.466 12.7L26.4437 0.725505L21.4727 12.7L14.9643 28.2923L19.9865 40.2669L26.4437 24.7254L27.9299 28.2923H37.9231L31.466 12.7ZM54.681 28.2923H62.6756L58.6783 18.7127L54.681 28.2923ZM71.9001 14.4834C71.9001 11.6809 74.2063 9.3879 77.0249 9.3879C77.435 9.3879 77.7935 9.43885 78.1525 9.54078L81.6883 1.03124C80.2022 0.521683 78.665 0.266907 76.9739 0.266907C69.0304 0.266907 62.6245 6.63631 62.6245 14.5344C62.6245 20.1904 65.9042 25.0821 70.7215 27.3751L74.2577 18.8656C72.8737 17.8974 71.9001 16.3178 71.9001 14.4834ZM79.3311 18.6618L75.3338 28.2923H83.3284L79.3311 18.6618Z" fill="white"/>
</svg>
